<svg width="1451" height="699" viewBox="0 0 1451 699" fill="none" xmlns="http://www.w3.org/2000/svg">
<g clip-path="url(#clip0_0_3)">
<path d="M1451 0H0V714H1451V0Z" fill="#FAF8F0"/>
<path d="M239.944 342.916L1451 432.033V529.877C1451 529.877 307.884 367.537 239.944 342.916Z" fill="white"/>
<path d="M131.648 99.3342C131.648 99.3342 260.122 150.846 398.647 172.629C537.172 194.411 652.497 199.804 652.497 199.804C652.497 199.804 607.304 168.371 589.318 170.642C571.331 172.912 546.921 181.782 537.248 179.014C527.575 176.247 494.02 151.059 476.185 152.691C458.35 154.323 415.5 162.837 405.6 155.6C395.775 148.363 377.94 80.6026 324.888 70.953C271.836 61.3034 204.878 103.662 183.944 98.7666C163.086 93.8708 139.432 88.9751 131.648 99.3342Z" fill="white"/>
<path d="M80.0317 93.1613C80.0317 93.1613 141.548 129.773 288.537 168.726C435.527 207.679 442.631 205.409 442.631 205.409C442.631 205.409 233.067 174.19 146.989 138.429C60.9118 102.669 80.0317 93.1613 80.0317 93.1613Z" fill="white"/>
<path d="M163.237 181.782C163.237 181.782 231.933 215.059 339.322 233.577C339.322 233.577 210.622 236.841 154.395 219.245C98.1692 201.648 118.725 163.972 163.237 181.782Z" fill="white"/>
<path d="M1073.97 283.102C1073.97 283.102 1170.93 309.355 1277.03 294.526C1277.03 294.526 1262.07 259.688 1239.32 263.448C1223.3 266.074 1167.37 290.34 1141.83 279.555C1116.29 268.912 1082.81 258.269 1073.97 283.102Z" fill="white"/>
<path d="M838.859 314.251C838.859 314.251 1186.8 374.206 1264.41 373.355C1342.02 372.574 838.859 314.251 838.859 314.251Z" fill="white"/>
<path d="M1208.18 329.151C1208.18 329.151 1333.94 355.545 1394.02 352.92C1394.02 352.92 1392.43 308.716 1359.03 314.535C1325.55 320.353 1268.04 331.209 1208.18 329.151Z" fill="white"/>
<path d="M1197.07 539.172H1225.11V427.705L1197.07 440.121V539.172Z" fill="#FCD535" fill-opacity="0.8"/>
<path d="M302.972 376.902H247.501V548.396H302.972V376.902Z" fill="#FCD535" fill-opacity="0.8"/>
<path d="M1205.84 462.117H1052.35V540.804H1205.84V462.117Z" fill="#FCD535" fill-opacity="0.8"/>
<path d="M1175.46 446.862H1134.2V503.908H1175.46V446.862Z" fill="#FCD535" fill-opacity="0.8"/>
<path d="M904.154 491.917H846.266V539.172H904.154V491.917Z" fill="#FCD535" fill-opacity="0.8"/>
<path d="M873.472 483.687H855.032V491.988H873.472V483.687Z" fill="#FCD535" fill-opacity="0.8"/>
<path d="M846.266 514.338H814.752V539.385H846.266V514.338Z" fill="#FCD535" fill-opacity="0.8"/>
<path d="M1055.6 292.965H963.026V562.373H1055.6V292.965Z" fill="#E8E6E6"/>
<path d="M1045.63 304.743H1037.39V560.813H1045.63V304.743Z" fill="#FCD535"/>
<path d="M1031.49 304.459H1023.26V560.529H1031.49V304.459Z" fill="#FCD535"/>
<path d="M1015.78 304.459H1007.54V560.529H1015.78V304.459Z" fill="#FCD535"/>
<path d="M999.603 304.459H991.366V560.529H999.603V304.459Z" fill="#FCD535"/>
<path d="M984.489 304.459H976.251V560.529H984.489V304.459Z" fill="#FCD535"/>
<path d="M963.026 292.965H956.602V336.104H963.026V292.965Z" fill="white"/>
<path d="M891.836 377.47L933.25 348.166L979.954 349.231V589.832H891.836V377.47Z" fill="#FCD535"/>
<path d="M935.668 353.133L896.446 379.811V589.832H935.895L935.668 353.133Z" fill="white"/>
<path d="M889.493 375.696L891.836 377.47L933.25 348.166L979.954 349.231V345.612L933.326 344.335L889.493 375.696Z" fill="#EEEEEE"/>
<path d="M924.71 358.951V589.832" stroke="#FCD535" stroke-opacity="0.8" stroke-miterlimit="10"/>
<path d="M914.432 365.053V588.626" stroke="#FCD535" stroke-opacity="0.8" stroke-miterlimit="10"/>
<path d="M904.154 373.284V588.626" stroke="#FCD535" stroke-opacity="0.8" stroke-miterlimit="10"/>
<path d="M737.063 475.456H675.017V533.708H737.063V475.456Z" fill="#FCD535" fill-opacity="0.8"/>
<path d="M729.43 466.871H708.118V499.793H729.43V466.871Z" fill="#FCD535" fill-opacity="0.8"/>
<path d="M760.037 489.93H742.655V533.708H760.037V489.93Z" fill="#FCD535" fill-opacity="0.8"/>
<path d="M812.56 449.913H775.529V533.283H812.56V449.913Z" fill="#FCD535" fill-opacity="0.8"/>
<path d="M785.429 452.183H812.56V440.121L785.429 445.514V452.183Z" fill="#FCD535" fill-opacity="0.8"/>
<path d="M770.541 520.795H749.532V533.141H770.541V520.795Z" fill="#FCD535" fill-opacity="0.8"/>
<path d="M444.142 426.782H386.404V532.147H444.142V426.782Z" fill="#FCD535" fill-opacity="0.8"/>
<path d="M812.56 440.121L820.193 445.514V533.921L809.008 532.644L812.56 440.121Z" fill="white"/>
<path d="M472.709 253.799L386.404 259.049L388.067 536.972L484.196 537.753L472.709 253.799Z" fill="#DCDCDC"/>
<path d="M472.709 263.236L395.851 268.486L398.345 539.03L477.47 537.682L472.709 263.236Z" fill="#FCD535"/>
<path d="M509.361 284.663L509.89 536.972L477.47 537.682L472.709 253.799L509.361 284.663Z" fill="#FCD535"/>
<path d="M472.709 257.276L509.437 287.431L509.361 284.663L472.709 253.799V257.276Z" fill="white"/>
<path d="M502.787 287.147L472.709 263.236L476.638 529.806L506.036 537.043L502.787 287.147Z" fill="white"/>
<path d="M480.341 267.28L482.231 537.54" stroke="#FCD535" stroke-opacity="0.8" stroke-miterlimit="10"/>
<path d="M461.221 261.391L463.186 531.651" stroke="#FCD535" stroke-opacity="0.8" stroke-miterlimit="10"/>
<path d="M444.747 261.391L446.636 531.651" stroke="#FCD535" stroke-opacity="0.8" stroke-miterlimit="10"/>
<path d="M427.063 261.391L428.952 531.651" stroke="#FCD535" stroke-opacity="0.8" stroke-miterlimit="10"/>
<path d="M410.512 261.391L412.401 531.651" stroke="#FCD535" stroke-opacity="0.8" stroke-miterlimit="10"/>
<path d="M487.37 271.679L489.259 542.01" stroke="#FCD535" stroke-opacity="0.8" stroke-miterlimit="10"/>
<path d="M493.567 278.136L495.532 548.467" stroke="#FCD535" stroke-opacity="0.8" stroke-miterlimit="10"/>
<path d="M498.857 281.4L500.746 551.731" stroke="#FCD535" stroke-opacity="0.8" stroke-miterlimit="10"/>
<path d="M472.784 257.134L472.709 253.799L386.404 259.049L388.067 536.972H393.206L389.956 262.526L472.709 257.276L472.784 257.134Z" fill="white"/>
<path d="M573.825 291.972H548.281V284.592L573.825 282.038V291.972Z" fill="#FCD535"/>
<path d="M582.894 287.36L573.825 282.038V291.972L581.156 295.094L582.894 287.36Z" fill="#FCD535" fill-opacity="0.8"/>
<path d="M578.36 289.772H528.406V403.652H578.36V289.772Z" fill="#FCD535"/>
<path d="M589.998 402.942V299.918L591.736 297.08L578.36 287.36H526.97L528.406 289.772H578.36V403.652L589.998 402.942" fill="#D8D1D1"/>
<path d="M578.36 289.772V292.965L583.499 296.938V346.747H585.086V298.003L589.998 302.118V299.918L590.376 299.28L578.36 289.772Z" fill="#FCD535" fill-opacity="0.8"/>
<path d="M1038.83 369.168C1038.83 369.168 1033.23 383.217 1028.4 387.12C1028.4 387.12 994.237 379.386 993.557 378.109C992.801 376.831 993.028 373.284 993.028 373.284L1007.08 365.053L1032.4 368.672L1038.83 369.168Z" fill="#14151B"/>
<path d="M1027.04 383.927C1027.04 383.927 992.348 377.115 991.97 375.625C991.517 374.135 997.26 363.492 1003.84 361.009C1010.41 358.525 1036.41 365.763 1037.24 367.253C1038.07 368.672 1029.45 383.714 1027.04 383.927Z" fill="#623890"/>
<path d="M1003.84 360.938C997.26 363.421 991.517 374.135 991.97 375.554C992.046 375.838 993.481 376.335 995.749 376.973L1025.75 363.279C1017.66 361.293 1007.61 359.519 1003.84 360.938Z" fill="#915DFF"/>
<path d="M1065.8 311.484L1064.22 309C1064.22 309 1053.49 306.446 1052.2 311.484C1050.92 316.45 1052.2 350.153 1052.2 350.153L1053.41 388.468L1032.78 381.656L1029.68 387.545C1029.68 387.545 1017.14 385.133 1016.23 383.075C1015.32 381.018 1017.66 365.621 1016.23 365.621C1015.4 365.621 1014.34 368.672 1014.34 368.672C1014.34 368.672 1012.6 367.678 1011.24 368.672C1011.24 368.672 1010.49 367.324 1009.65 367.466C1008.9 367.607 998.847 376.406 998.847 377.257C998.847 378.109 1000.43 385.204 1002.25 385.771C1003.99 386.339 1008.22 387.19 1009.65 387.971C1011.09 388.751 1020.23 389.603 1027.41 388.468L1050.99 404.361L1066.03 402.162L1068.15 340.149L1065.8 311.484" fill="#6E6FDC"/>
<path d="M1066.11 402.233L1066.79 382.224L1065.73 380.876L1053.03 376.122L1053.41 388.468L1032.78 381.656L1029.68 387.545C1029.68 387.545 1017.14 385.133 1016.23 383.075C1015.32 381.018 1017.66 365.621 1016.23 365.621C1015.4 365.621 1014.34 368.672 1014.34 368.672C1014.34 368.672 1012.6 367.678 1011.24 368.672C1011.24 368.672 1010.49 367.324 1009.65 367.466C1008.9 367.607 998.847 376.406 998.847 377.257C998.847 378.108 1000.43 385.204 1002.25 385.771C1003.99 386.339 1008.22 387.19 1009.65 387.971C1011.09 388.751 1020.23 389.603 1027.41 388.468L1050.99 404.361L1066.11 402.233Z" fill="#F8C6B5"/>
<path d="M1054.02 404.006L1056.06 393.576L1047.74 386.623L1032.78 381.656L1029.83 385.488C1029.54 385.861 1029.15 386.151 1028.7 386.327C1028.24 386.502 1027.75 386.555 1027.26 386.481C1024.09 385.984 1017.36 384.707 1016.3 383.217C1013.13 385.984 1009.13 386.765 1005.88 386.836C1007.18 387.094 1008.45 387.499 1009.65 388.042C1011.09 388.822 1020.23 389.674 1027.41 388.539L1050.99 404.432L1054.02 404.006Z" fill="#F79494"/>
<path d="M1062.33 309C1062.33 309 1045.17 340.574 1044.95 351.359C1044.72 362.073 1049.93 411.74 1043.28 430.898C1036.63 450.055 1024.54 473.469 1024.54 473.469L1054.54 470.702L1072.46 396.698L1069.96 347.599L1072 309.994L1062.33 309" fill="#56579D"/>
<path d="M1074.87 307.936L1063.61 311.484C1063.61 311.484 1047.29 343.696 1047.82 348.095C1048.35 352.494 1050.01 355.687 1053.41 361.009C1056.81 366.259 1060.14 391.802 1058.02 402.658L1039.96 496.742H1115.83C1115.83 496.742 1118.4 439.554 1109.33 418.197C1100.27 396.769 1092.71 365.408 1093.62 341.71C1094.6 317.94 1101.17 303.75 1101.17 303.75L1074.87 307.936Z" fill="#948ABE"/>
<path d="M991.819 313.967C991.793 313.897 991.784 313.822 991.794 313.748C991.804 313.674 991.832 313.603 991.876 313.541C991.92 313.479 991.978 313.428 992.047 313.391C992.116 313.354 992.193 313.333 992.272 313.328C993.633 313.47 996.202 313.825 996.656 314.251C997.26 314.818 1009.28 338.162 1009.28 338.162L1003.99 339.723L991.819 313.967Z" fill="#14151B"/>
<path d="M992.423 315.173L1004.14 339.794L1007.39 338.801L996.58 317.018C996.38 316.629 996.084 316.29 995.716 316.031C995.347 315.771 994.918 315.599 994.464 315.528L992.423 315.173Z" fill="#212E3E"/>
<path d="M1047.82 348.095C1048.35 352.494 1050.01 355.687 1053.41 361.009C1054.77 363.208 1056.21 368.743 1057.19 375.341L1066.86 381.656C1066.86 381.656 1058.32 354.694 1058.1 346.889C1057.87 339.084 1068.83 311.484 1068.83 311.484H1063.61C1063.61 311.484 1047.29 343.767 1047.82 348.095Z" fill="white"/>
<path d="M1058.63 397.053C1058.56 398.932 1058.36 400.805 1058.02 402.658L1056.06 413.017H1068.68L1058.63 397.053Z" fill="white"/>
<path d="M1115.83 496.742C1115.83 496.742 1118.4 439.554 1109.33 418.197C1109.11 417.771 1108.96 417.275 1108.73 416.778C1100.72 410.676 1092.1 406.206 1085.38 407.909C1076.09 410.315 1066.21 409.792 1057.27 406.419L1039.96 496.671L1115.83 496.742Z" fill="#212E3E"/>
<path d="M1108.73 416.778C1100.72 410.676 1092.1 406.206 1085.38 407.909C1076.76 410.108 1071.47 409.966 1066.03 408.76C1070.11 414.72 1079.79 433.097 1080.84 451.545C1081.75 468.361 1082.2 488.086 1082.36 496.671H1115.83C1115.83 496.671 1118.4 439.483 1109.33 418.126C1109.11 417.7 1108.96 417.275 1108.73 416.778Z" fill="#14151B"/>
<path d="M1087.87 301.692C1087.87 301.692 1066.41 327.306 1074.95 361.576C1083.49 395.847 1088.02 431.039 1087.87 445.443C1087.8 459.775 1087.87 488.795 1087.87 488.795C1087.87 488.795 1120.22 488.228 1127.09 490.569C1127.09 490.569 1129.59 452.467 1125.51 443.101C1121.43 433.736 1105.18 406.49 1104.27 387.119C1103.36 367.749 1107.07 309 1107.07 309L1092.18 299.776L1087.87 301.692Z" fill="#56579D"/>
<path d="M1100.42 447.926C1095.28 429.408 1086.13 401.381 1079.26 380.805C1084.92 408.334 1087.95 433.807 1087.87 445.443C1087.8 459.775 1087.87 488.795 1087.87 488.795C1087.87 488.795 1098.15 488.582 1108.35 488.866C1106.8 475.052 1104.15 461.367 1100.42 447.926V447.926Z" fill="#6E6FDC"/>
<path d="M1104.8 356.468C1102.46 363.421 1101.17 370.729 1099.28 377.754C1098.26 381.589 1096.97 385.358 1095.43 389.035C1094.02 392.333 1092.14 395.436 1089.84 398.259C1087.27 401.316 1083.84 403.628 1079.94 404.929C1079.7 404.994 1079.48 405.103 1079.28 405.248C1079.09 405.394 1078.93 405.574 1078.81 405.779C1078.69 405.983 1078.61 406.207 1078.59 406.439C1078.56 406.67 1078.58 406.905 1078.65 407.128C1078.72 407.352 1078.84 407.561 1078.99 407.742C1079.15 407.924 1079.34 408.075 1079.56 408.187C1079.78 408.299 1080.01 408.37 1080.26 408.395C1080.51 408.42 1080.76 408.4 1081 408.334C1089.01 405.709 1094.52 399.607 1098 392.512C1101.63 385.133 1103.52 377.115 1105.4 369.168C1106.24 365.192 1107.3 361.261 1108.58 357.39C1109.18 355.191 1105.56 354.268 1104.8 356.468V356.468Z" fill="black"/>
<path d="M1096.26 355.616C1096.63 359.472 1096.5 363.355 1095.88 367.182C1095.95 366.538 1096.05 365.899 1096.19 365.266C1095.25 371.083 1093.94 376.842 1092.26 382.508C1091.5 385.133 1090.97 387.758 1090.21 390.383C1089.7 392.269 1089.04 394.118 1088.25 395.918C1088.48 395.35 1088.78 394.782 1089.01 394.215C1088.48 395.446 1087.79 396.613 1086.97 397.692C1087.34 397.195 1087.72 396.769 1088.17 396.272C1087.84 396.684 1087.46 397.064 1087.04 397.408C1087.57 397.053 1088.02 396.698 1088.55 396.272C1088.29 396.463 1088.01 396.629 1087.72 396.769C1088.33 396.556 1088.93 396.272 1089.53 396.06C1089.31 396.131 1089.01 396.202 1088.7 396.272C1089.39 396.213 1090.07 396.118 1090.74 395.989H1089.99C1090.67 396.048 1091.35 396.143 1092.03 396.272L1091.12 396.06C1091.73 396.272 1092.33 396.556 1092.94 396.769C1092.54 396.625 1092.18 396.408 1091.88 396.131C1092.41 396.485 1092.86 396.84 1093.39 397.266C1093.04 397 1092.72 396.716 1092.41 396.414C1089.69 393.718 1084.47 393.647 1081.75 396.414C1080.37 397.757 1079.6 399.55 1079.6 401.417C1079.6 403.283 1080.37 405.077 1081.75 406.419C1083.94 408.629 1086.94 409.973 1090.14 410.179C1093.09 410.392 1095.88 409.044 1098 407.27C1099.41 406.038 1100.56 404.57 1101.4 402.942C1102.44 401.055 1103.3 399.084 1103.97 397.053C1104.95 394.215 1105.71 391.306 1106.39 388.397C1107.37 384.281 1108.65 380.166 1109.56 376.051C1111 369.452 1112.21 362.428 1111.45 355.687C1111.22 353.772 1110.77 352.069 1109.26 350.65C1107.83 349.331 1105.9 348.592 1103.89 348.592C1101.89 348.592 1099.96 349.331 1098.53 350.65C1097.24 351.856 1096.03 353.772 1096.26 355.616V355.616Z" fill="black"/>
<path d="M1110.92 370.587V369.097H1095.81C1095.79 373.719 1096.28 378.331 1097.24 382.862C1098.21 387.091 1099.52 391.242 1101.17 395.279C1102.76 399.252 1104.5 403.084 1107.22 406.49C1109.73 409.589 1112.51 412.485 1115.53 415.146C1118.57 417.785 1121.42 420.605 1124.07 423.589C1123.69 423.093 1123.32 422.667 1122.86 422.17L1123.54 423.022C1124.75 424.583 1126.04 425.789 1128.08 426.286C1129.05 426.543 1130.06 426.612 1131.06 426.491C1132.06 426.369 1133.03 426.057 1133.9 425.576C1135.59 424.623 1136.83 423.101 1137.37 421.319C1137.83 419.545 1137.83 417.346 1136.62 415.855C1133.87 412.417 1130.81 409.212 1127.47 406.277C1124.61 403.787 1121.9 401.133 1119.39 398.33C1119.76 398.827 1120.14 399.253 1120.6 399.749C1118.83 397.611 1117.36 395.275 1116.21 392.796C1116.44 393.363 1116.74 393.931 1116.97 394.499C1114.14 388.302 1112.16 381.793 1111.07 375.129C1111.14 375.772 1111.24 376.411 1111.38 377.044C1111.03 374.432 1110.88 371.8 1110.92 369.168C1110.92 365.479 1107.45 361.931 1103.36 362.073C1101.37 362.103 1099.47 362.86 1098.06 364.184C1096.65 365.508 1095.84 367.296 1095.81 369.168V370.658C1095.81 374.348 1099.28 377.896 1103.36 377.754C1107.45 377.47 1110.92 374.561 1110.92 370.587V370.587Z" fill="black"/>
<path d="M1111.45 299.918C1108.96 296.087 1104.65 294.313 1100.04 294.171C1097.23 294.206 1094.44 294.564 1091.73 295.235C1084.32 296.938 1077.44 300.202 1070.49 303.04C1071.09 302.827 1071.7 302.544 1072.3 302.331C1071.25 302.756 1070.11 303.111 1069.05 303.466C1067.17 303.993 1065.55 305.155 1064.52 306.73C1064.01 307.545 1063.68 308.45 1063.55 309.389C1063.42 310.328 1063.49 311.282 1063.76 312.193C1064.97 315.812 1068.98 318.295 1073.06 317.16C1076.39 316.237 1079.48 314.677 1082.66 313.47C1082.05 313.683 1081.45 313.967 1080.84 314.18C1086.81 311.838 1092.86 309.142 1099.36 308.291C1098.67 308.351 1097.99 308.445 1097.32 308.575C1098.6 308.409 1099.89 308.385 1101.17 308.504C1100.49 308.444 1099.81 308.349 1099.13 308.22C1099.7 308.295 1100.26 308.438 1100.8 308.646C1100.19 308.433 1099.59 308.149 1098.98 307.936C1099.36 308.082 1099.71 308.273 1100.04 308.504C1099.51 308.149 1099.06 307.794 1098.53 307.368C1098.8 307.563 1099.05 307.777 1099.28 308.007C1098.91 307.51 1098.53 307.085 1098.07 306.588C1098.23 306.73 1098.3 306.943 1098.45 307.085C1099.47 308.674 1101.09 309.841 1102.99 310.348C1103.96 310.606 1104.97 310.675 1105.97 310.553C1106.97 310.431 1107.94 310.12 1108.81 309.639C1112.13 307.581 1113.64 303.253 1111.45 299.918V299.918Z" fill="black"/>
<path d="M1097.09 306.872C1097.09 306.872 1091.05 310.49 1089.69 323.333C1088.33 336.175 1081.37 384.494 1081.37 384.494C1081.37 384.494 1041.85 361.931 1029 354.268L1021.37 348.237L1019.78 338.73C1019.78 338.73 1016 332.84 1015.1 326.384C1014.7 326.098 1014.25 325.898 1013.77 325.8C1013.28 325.702 1012.78 325.707 1012.3 325.816C1010.71 326.242 1005.12 329.648 1005.12 329.648L1006.03 331.421C1006.03 331.421 1009.43 331.705 1011.01 330.712L1011.92 335.962C1011.92 335.962 1003.99 335.821 1001.34 332.415C1001.34 332.415 996.353 321.133 995.068 320.849C993.784 320.566 997.109 334.189 997.109 334.189C997.109 334.189 997.411 339.723 998.545 341.213C998.545 341.213 1000.28 348.947 1001.79 350.721C1003.31 352.494 1017.44 359.093 1017.44 359.093C1017.44 359.093 1078.35 405.709 1087.34 405.567C1096.41 405.425 1097.77 391.802 1097.77 391.802C1097.77 391.802 1108.65 331.989 1109.18 327.732C1109.94 323.475 1109.64 304.317 1097.09 306.872Z" fill="#F8C6B5"/>
<path d="M1057.72 388.468L1063.61 379.457L1061.95 373.284C1061.35 372.929 1060.67 372.574 1059.99 372.148C1059.08 373.638 1057.27 375.199 1053.86 374.916C1047.59 374.348 1021.37 348.166 1021.37 348.166L1019.78 338.659C1019.78 338.659 1016 332.77 1015.1 326.313C1014.72 326.033 1014.28 325.839 1013.81 325.745L1011.92 335.891C1009.39 335.819 1006.89 335.364 1004.52 334.543V340.361C1004.52 340.361 1005.04 348.734 1005.88 353.346C1010.56 355.9 1017.36 359.093 1017.36 359.093C1017.36 359.093 1038.52 375.27 1057.72 388.468Z" fill="#F79494"/>
<path d="M1087.87 302.827C1087.95 303.253 1078.12 336.672 1080.47 362.499H1068.83C1068.83 362.499 1064.9 324.681 1076.91 309.355L1087.87 302.827Z" fill="#14151B"/>
<path d="M1097.09 306.872C1097.09 306.872 1091.05 310.49 1089.69 323.333C1088.33 336.104 1081.37 384.494 1081.37 384.494C1081.37 384.494 1071.47 378.889 1059.99 372.29C1060.06 376.477 1059.68 383.217 1056.89 388.042C1070.64 397.55 1083.56 405.709 1087.34 405.638C1096.41 405.496 1097.77 391.873 1097.77 391.873C1097.77 391.873 1108.65 332.06 1109.18 327.803C1109.94 323.475 1109.64 304.317 1097.09 306.872Z" fill="#56579D"/>
<path d="M1093.99 310.206C1092.33 312.69 1090.44 316.805 1089.76 323.262C1088.4 336.033 1081.45 384.423 1081.45 384.423C1081.45 384.423 1080.24 383.714 1078.12 382.508L1085.98 387.049C1085.98 387.049 1091.58 373.142 1095.13 340.716C1097.09 322.836 1095.66 314.251 1093.99 310.206Z" fill="#6E6FDC"/>
<path d="M1087.95 405.567C1081.22 398.046 1056.96 387.971 1056.96 387.971C1070.72 397.479 1083.64 405.638 1087.42 405.567H1087.95Z" fill="#6E6FDC"/>
<path d="M1005.88 342.135C1005.88 342.135 997.638 335.821 997.26 334.189" stroke="#F08984" stroke-miterlimit="10"/>
<path d="M1002.32 346.534C1002.32 346.534 998.469 341.497 998.167 340.22" stroke="#F08984" stroke-miterlimit="10"/>
<path d="M1029.76 354.694L1024.47 360.938L1021.07 358.667L1026.36 352.211L1029.76 354.694Z" fill="#623890"/>
<path d="M1025.3 362.641L1026.73 361.151C1027.34 360.517 1027.65 359.686 1027.61 358.837C1027.57 357.987 1027.17 357.187 1026.51 356.61L1024.92 355.262C1024.25 354.694 1023.36 354.398 1022.46 354.438C1021.55 354.477 1020.7 354.85 1020.08 355.475L1018.65 356.965C1018.04 357.598 1017.73 358.429 1017.77 359.279C1017.81 360.128 1018.21 360.928 1018.87 361.506L1020.46 362.854C1021.14 363.422 1022.02 363.719 1022.93 363.679C1023.83 363.639 1024.68 363.266 1025.3 362.641V362.641Z" fill="white"/>
<path d="M1024.84 363.421L1026.28 361.931C1026.88 361.298 1027.2 360.467 1027.16 359.617C1027.12 358.767 1026.72 357.968 1026.05 357.39L1024.47 356.042C1023.79 355.474 1022.91 355.178 1022 355.218C1021.1 355.258 1020.24 355.63 1019.63 356.255L1018.19 357.745C1017.59 358.378 1017.27 359.209 1017.32 360.059C1017.36 360.909 1017.76 361.709 1018.42 362.286L1020.01 363.634C1020.34 363.924 1020.73 364.149 1021.15 364.295C1021.57 364.442 1022.02 364.507 1022.47 364.487C1022.92 364.467 1023.37 364.363 1023.77 364.18C1024.18 363.997 1024.55 363.739 1024.84 363.421Z" fill="#14151B"/>
<path d="M1068.83 441.753C1068.83 441.753 1079.03 448.778 1078.12 465.026C1077.14 481.274 1078.05 496.671 1078.05 496.671" stroke="black" stroke-width="2" stroke-miterlimit="10"/>
<path d="M1011.24 368.672C1011.24 368.672 1003.31 376.122 1003 377.186C1002.7 378.179 1004.59 383.501 1004.59 383.501" stroke="#F08984" stroke-miterlimit="10"/>
<path d="M1016.23 365.55C1016.23 365.55 1015.25 365.976 1013.43 370.942C1011.24 376.973 1011.17 381.372 1011.24 380.876" stroke="#F08984" stroke-miterlimit="10"/>
<path d="M1007.84 380.947C1007.84 380.947 1008.37 374.845 1014.42 368.601" stroke="#F08984" stroke-miterlimit="10"/>
<path d="M532.411 320.779H516.39V535.127H532.411V320.779Z" fill="#FCD535"/>
<path d="M656.426 320.779H526.97V534.347H656.426V320.779Z" fill="#FCD535" fill-opacity="0.8"/>
<path d="M648.945 327.022H536.417V331.705H648.945V327.022Z" fill="white"/>
<path d="M648.945 333.479H536.417V338.162H648.945V333.479Z" fill="white"/>
<path d="M648.945 340.007H536.417V344.69H648.945V340.007Z" fill="white"/>
<path d="M648.945 346.463H536.417V351.146H648.945V346.463Z" fill="white"/>
<path d="M648.945 352.92H536.417V357.603H648.945V352.92Z" fill="white"/>
<path d="M648.945 359.377H536.417V364.06H648.945V359.377Z" fill="white"/>
<path d="M648.945 365.834H536.417V370.517H648.945V365.834Z" fill="white"/>
<path d="M648.945 372.29H536.417V376.973H648.945V372.29Z" fill="white"/>
<path d="M648.945 378.889H536.417V383.572H648.945V378.889Z" fill="white"/>
<path d="M648.945 385.346H536.417V390.029H648.945V385.346Z" fill="white"/>
<path d="M648.945 391.802H536.417V396.485H648.945V391.802Z" fill="white"/>
<path d="M648.945 398.259H536.417V402.942H648.945V398.259Z" fill="white"/>
<path d="M648.945 404.716H536.417V409.399H648.945V404.716Z" fill="white"/>
<path d="M648.945 411.244H536.417V415.926H648.945V411.244Z" fill="white"/>
<path d="M648.945 417.7H536.417V422.383H648.945V417.7Z" fill="white"/>
<path d="M648.945 424.157H536.417V428.84H648.945V424.157Z" fill="white"/>
<path d="M648.945 430.756H536.417V435.439H648.945V430.756Z" fill="white"/>
<path d="M648.945 437.212H536.417V441.895H648.945V437.212Z" fill="white"/>
<path d="M648.945 443.669H536.417V448.352H648.945V443.669Z" fill="white"/>
<path d="M648.945 450.126H536.417V454.809H648.945V450.126Z" fill="white"/>
<path d="M648.945 456.583H536.417V461.265H648.945V456.583Z" fill="white"/>
<path d="M648.945 463.039H536.417V467.722H648.945V463.039Z" fill="white"/>
<path d="M648.945 469.496H536.417V474.179H648.945V469.496Z" fill="white"/>
<path d="M648.945 475.953H536.417V480.636H648.945V475.953Z" fill="white"/>
<path d="M648.945 482.551H536.417V487.234H648.945V482.551Z" fill="white"/>
<path d="M648.945 489.008H536.417V493.691H648.945V489.008Z" fill="white"/>
<path d="M648.945 495.465H536.417V500.148H648.945V495.465Z" fill="white"/>
<path d="M648.945 501.992H536.417V506.675H648.945V501.992Z" fill="white"/>
<path d="M648.945 508.449H536.417V513.132H648.945V508.449Z" fill="white"/>
<path d="M648.945 514.906H536.417V519.589H648.945V514.906Z" fill="white"/>
<path d="M648.945 521.363H536.417V526.045H648.945V521.363Z" fill="white"/>
<path d="M648.945 527.819H536.417V532.502H648.945V527.819Z" fill="white"/>
<path d="M639.498 318.721H522.662V320.779H639.498V318.721Z" fill="white"/>
<path d="M624.686 322.978H622.645V535.127H624.686V322.978Z" fill="#FCD535" fill-opacity="0.8"/>
<path d="M563.094 322.694H561.053V534.844H563.094V322.694Z" fill="#FCD535" fill-opacity="0.8"/>
<path d="M991.743 277.284C991.743 277.284 990.685 292.823 1014.79 284.238C1038.83 275.581 1046.99 301.905 1024.39 311.555" stroke="#FCD535" stroke-opacity="0.8" stroke-miterlimit="10"/>
<path d="M1038.52 309.426C1038.52 309.426 1034.59 322.339 1020.91 328.654" stroke="#FCD535" stroke-opacity="0.8" stroke-miterlimit="10"/>
<path d="M478.679 440.121C478.679 440.121 455.856 435.51 449.432 464.671" stroke="#FCD535" stroke-opacity="0.8" stroke-miterlimit="10"/>
<path d="M458.652 456.937C455.727 461.982 454.072 467.589 453.815 473.327" stroke="#FCD535" stroke-opacity="0.8" stroke-miterlimit="10"/>
<path d="M1061.19 249.116C1061.19 249.116 1052.88 249.329 1050.77 259.83C1048.65 270.402 1052.88 284.451 1049.71 290.127C1049.71 290.127 1053.03 290.553 1055.45 285.231C1055.45 285.231 1059.53 293.816 1061.19 293.816C1062.86 293.816 1072 287.005 1072 287.005L1065.73 311.413L1084.47 296.158L1087.8 261.178L1068.75 249.045L1061.19 249.116Z" fill="#F08984"/>
<path d="M1065.73 281.4C1063.9 280.984 1062.13 280.389 1060.44 279.626C1058.55 278.632 1059.53 277.639 1059.53 277.639C1059.53 277.639 1063.46 271.75 1062.56 267.493C1061.65 263.165 1054.02 258.127 1054.02 258.127L1050.54 261.462C1049.41 269.905 1051.6 280.052 1050.77 286.437L1053.11 288.708C1054.16 287.73 1054.96 286.542 1055.45 285.231C1055.45 285.231 1059.53 293.816 1061.19 293.816C1067.17 291.191 1065.73 281.4 1065.73 281.4Z" fill="#F8C6B5"/>
<path d="M1061.19 249.116C1061.19 249.116 1052.88 249.329 1050.77 259.83C1048.65 270.402 1052.88 284.451 1049.71 290.127C1049.71 290.127 1053.03 290.553 1055.45 285.231L1054.7 283.244L1051.97 282.393L1053.34 273.666C1053.62 268.625 1054.2 263.604 1055.07 258.624C1055.07 258.624 1058.17 256.282 1060.29 256.637C1062.4 257.063 1068.75 265.222 1068.75 265.222C1070.2 268.475 1072.71 271.21 1075.93 273.027C1071.47 257.701 1081.68 260.539 1081.68 260.539L1063.92 248.974H1061.19V249.116Z" fill="#14151B"/>
<path d="M1077.97 272.318C1077.22 273.595 1079.86 286.863 1079.86 286.863L1083.41 280.335L1082.66 266.145C1082.66 266.145 1078.73 271.04 1077.97 272.318Z" fill="#2F4056"/>
<path d="M1071.78 288.069L1065.8 311.484L1076.91 302.402L1071.78 288.069Z" fill="#F8C6B5"/>
<path d="M1070.11 315.67C1070.11 315.67 1092.18 300.77 1098.98 304.388C1105.78 308.007 1109.49 317.515 1108.96 323.262C1108.96 323.262 1111.9 298.074 1100.95 295.306C1097.86 294.48 1094.6 294.453 1091.5 295.227C1088.4 296.002 1085.58 297.549 1083.34 299.705L1070.11 315.244" fill="#4A217F"/>
<path d="M1059.91 249.045C1059.89 249.057 1059.88 249.074 1059.87 249.092C1059.86 249.11 1059.85 249.131 1059.85 249.151C1059.85 249.172 1059.86 249.192 1059.87 249.211C1059.88 249.229 1059.89 249.245 1059.91 249.258C1062.18 250.464 1080.39 260.397 1080.62 277.213C1080.92 295.094 1066.18 305.24 1063.69 303.75C1061.19 302.26 1059.76 310.987 1065.73 315.741C1071.7 320.495 1085.23 298.783 1092.1 294.81C1098.98 290.836 1104.27 292.326 1102.68 283.67C1101.1 275.014 1093.99 252.238 1081.68 248.477C1073.06 245.852 1061.5 248.406 1059.91 249.045Z" fill="#623890"/>
<path d="M1063.69 303.75C1065.12 323.829 1087.72 285.089 1081.68 267.351C1077.82 255.998 1067.54 250.535 1062.18 248.477C1061.04 248.761 1060.21 248.974 1059.83 249.116C1059.82 249.128 1059.8 249.144 1059.79 249.163C1059.78 249.181 1059.78 249.202 1059.78 249.222C1059.78 249.243 1059.78 249.263 1059.79 249.282C1059.8 249.3 1059.82 249.316 1059.83 249.329C1062.1 250.535 1080.31 260.468 1080.54 277.284C1080.84 295.094 1066.18 305.169 1063.69 303.75Z" fill="#858585"/>
<path d="M1047.82 274.943C1047.82 274.943 1050.46 283.528 1052.05 281.825L1053.34 274.304L1054.92 273.311C1054.92 273.311 1059.61 279.484 1062.03 278.278C1064.44 277.071 1063.46 268.202 1063.46 268.202L1074.87 265.577V263.945L1061.19 266.783L1047.82 274.943Z" fill="#080D13"/>
<path d="M1054.77 283.315C1054.77 283.315 1055.53 280.903 1052.05 282.464L1054.77 283.315Z" fill="white"/>
<path d="M1058.4 276.93L1059.53 277.781L1060.51 267.138L1059.23 267.919L1058.4 276.93Z" fill="white"/>
<path d="M1050.31 280.903C1050.39 280.974 1050.39 281.045 1050.46 281.187L1051.67 272.601L1050.77 273.169L1050.31 280.903Z" fill="white"/>
<path d="M1084.4 281.187C1084.4 281.187 1083.49 296.938 1075.93 301.763C1076.01 301.692 1086.21 297.648 1084.4 281.187Z" fill="#2F4056"/>
<path d="M1072.98 250.819C1072.98 250.819 1081.45 255.502 1085.38 266.57C1085.06 263.127 1083.73 259.834 1081.55 257.054C1079.36 254.274 1076.4 252.116 1072.98 250.819V250.819Z" fill="#2F4056"/>
<path d="M1092.94 276.007C1092.94 276.007 1093.24 281.967 1090.74 285.089C1092.1 283.999 1093.05 282.526 1093.45 280.89C1093.84 279.253 1093.66 277.541 1092.94 276.007V276.007Z" fill="#2F4056"/>
<path d="M1063.69 303.75C1063.69 303.75 1063.84 309.852 1066.33 309.355C1067.79 309.085 1069.11 308.389 1070.11 307.368C1070.11 307.368 1062.71 315.315 1063.69 303.75Z" fill="#2F4056"/>
<path d="M343.781 429.124L353.681 425.931C353.681 425.931 361.994 426.995 365.924 433.31C369.854 439.625 374.691 453.673 376.58 456.583C378.469 459.563 396.38 499.012 396.38 499.012L399.478 512.919L433.864 445.514L445.427 447.713V454.028L426.458 507.314L410.663 529.806L383.759 529.593L359.652 471.128L343.781 429.124Z" fill="#6E6FDC"/>
<path d="M355.571 460.414L359.576 471.128L383.684 529.593H388.067L372.045 463.181L370.685 462.968L366.226 453.461L356.175 456.441C356.05 457.774 355.848 459.101 355.571 460.414Z" fill="#14151B"/>
<path d="M417.692 519.731L426.458 507.314L445.351 453.957V447.642L433.789 445.514L403.106 505.753L417.692 519.731Z" fill="#F08984"/>
<path d="M366.075 439.341C369.854 448.991 380.132 476.307 380.132 476.307C380.132 476.307 381.794 488.157 382.248 488.937C382.701 489.718 396.909 501.425 396.909 501.425L396.38 499.012C396.38 499.012 378.469 459.492 376.58 456.583C374.69 453.603 369.854 439.625 365.924 433.31C361.994 426.995 353.681 425.931 353.681 425.931C359.42 428.828 363.829 433.599 366.075 439.341V439.341Z" fill="#FCD535"/>
<path d="M323.15 408.76C323.15 408.76 310.529 415.288 301.385 416.778C292.24 418.268 284.381 420.042 281.811 423.873C279.318 427.705 268.208 484.041 268.586 496.458L263.825 514.835L265.714 527.606C265.714 527.606 264.43 534.986 266.697 536.476C268.888 537.966 287.555 538.533 287.555 538.533L298.891 529.38L304.861 531.438L357.838 529.097C357.838 529.097 371.441 469.283 372.045 463.323C372.65 457.363 350.507 423.235 350.507 423.235L348.542 437.851V421.248L323.15 408.76Z" fill="#56579D"/>
<path d="M298.211 437.212C298.211 437.212 305.768 448.494 305.163 462.401C304.559 476.307 301.687 505.043 301.687 505.043L348.693 529.664L309.925 531.722L303.954 519.234L300.856 510.932C300.856 510.932 296.624 506.179 291.938 505.043L287.253 505.327L298.589 457.647L298.211 437.212Z" fill="#14151B"/>
<path d="M290.956 426.357C290.956 426.357 304.03 436.645 302.14 453.815C300.251 470.986 293.072 500.219 293.072 500.219C293.072 500.219 288.84 501.212 281.509 508.52C281.509 508.52 296.473 486.596 294.357 453.39C292.24 420.184 290.956 426.357 290.956 426.357Z" fill="#6E6FDC"/>
<path d="M290.956 426.357C295.804 424.754 300.75 423.427 305.768 422.383C314.308 420.609 324.661 412.663 324.661 412.663L322.545 409.044C319.976 410.321 309.32 415.43 301.309 416.778C292.165 418.268 284.305 420.042 281.736 423.873C279.242 427.705 268.133 484.041 268.511 496.458L263.749 514.835L265.639 527.607C271.004 513.984 291.787 505.114 291.787 505.114L292.921 500.29L275.388 508.591C275.388 508.591 280.451 452.68 283.247 439.98C286.27 427.137 290.956 426.357 290.956 426.357Z" fill="#444784"/>
<path d="M333.881 433.665L348.089 420.964L323.074 408.76C318.746 410.934 314.279 412.853 309.698 414.507V414.507C320.127 416.92 333.881 433.665 333.881 433.665Z" fill="#14151B"/>
<path d="M344.461 529.664L357.913 529.097C357.913 529.097 371.516 469.283 372.121 463.323C372.499 459.917 365.471 447.43 359.349 437.283C359.349 437.283 372.65 459.066 366 482.693C360.407 502.134 356.326 531.722 344.461 529.664Z" fill="#6E6FDC"/>
<path d="M348.618 421.177C348.618 421.177 349.903 466.374 349.903 469.354C349.903 472.334 337.735 529.806 337.735 529.806" stroke="black" stroke-miterlimit="10"/>
<path d="M296.321 512.139L355.117 496.458L372.121 490.498C372.121 490.498 392.904 494.968 393.584 496.103C394.188 497.31 400.839 512.706 400.536 513.558C400.234 514.48 389.049 500.219 389.049 500.219L385.12 504.05C385.12 504.05 383.23 509.372 382.248 510.01C381.133 510.516 379.969 510.92 378.771 511.216C378.771 511.216 377.184 516.254 375.597 516.254C374.01 516.254 365.848 516.538 363.581 512.423L356.251 511.5L350.734 508.449C350.734 508.449 299.571 541.442 287.555 538.462C287.479 538.533 284.683 531.083 296.321 512.139Z" fill="#F08984"/>
<path d="M378.696 511.287C379.905 511.025 381.073 510.62 382.172 510.081C383.155 509.514 385.044 504.121 385.044 504.121L388.974 500.29C388.974 500.29 400.159 514.48 400.461 513.629C400.763 512.777 394.113 497.31 393.508 496.174C392.904 494.968 372.045 490.569 372.045 490.569L355.042 496.529L296.246 512.21C295.868 512.848 295.49 513.416 295.188 513.984C307.657 511.5 351.036 502.773 355.042 501.496C359.727 500.006 372.952 496.742 374.842 497.026C376.731 497.31 384.817 496.742 383.533 502.489C383.533 502.489 382.399 505.753 379.603 506.959L375.371 511.429L375.522 516.325C377.109 516.325 378.696 511.287 378.696 511.287Z" fill="#F4BEB0"/>
<path d="M271.609 537.469C271.609 537.469 276.068 517.46 291.863 510.081C291.863 510.081 278.335 526.116 281.434 538.249L271.609 537.469Z" fill="#6E6FDC"/>
<path d="M419.354 529.664H345.822C345.82 528.974 345.963 528.291 346.244 527.653C346.524 527.015 346.936 526.436 347.456 525.948C347.976 525.46 348.593 525.073 349.272 524.81C349.951 524.547 350.679 524.412 351.414 524.414H419.43L419.354 529.664Z" fill="#14151B"/>
<path d="M419.959 471.554L392.148 527.606C392.042 527.824 391.995 528.064 392.011 528.303C392.027 528.542 392.106 528.774 392.241 528.978C392.375 529.181 392.561 529.351 392.783 529.47C393.004 529.59 393.253 529.657 393.508 529.664L476.563 529.806C477.531 529.799 478.479 529.544 479.304 529.069C480.13 528.594 480.802 527.917 481.248 527.11L511.402 471.057C511.559 470.762 511.634 470.434 511.621 470.104C511.607 469.775 511.505 469.454 511.325 469.171C511.144 468.888 510.89 468.652 510.586 468.486C510.283 468.319 509.94 468.228 509.588 468.219L427.214 467.225C425.696 467.244 424.213 467.659 422.932 468.423C421.651 469.187 420.621 470.271 419.959 471.554V471.554Z" fill="#14151B"/>
<path d="M423.889 471.554L396.078 527.606C395.971 527.824 395.924 528.064 395.941 528.303C395.957 528.542 396.036 528.774 396.17 528.978C396.305 529.181 396.491 529.351 396.712 529.47C396.933 529.59 397.183 529.657 397.438 529.664L480.493 529.806C481.461 529.799 482.409 529.544 483.234 529.069C484.06 528.594 484.732 527.917 485.178 527.11L515.332 471.057C515.489 470.762 515.564 470.434 515.551 470.104C515.537 469.775 515.435 469.454 515.254 469.171C515.074 468.888 514.82 468.652 514.516 468.486C514.213 468.319 513.869 468.228 513.518 468.219L431.143 467.225C429.626 467.244 428.143 467.659 426.862 468.423C425.581 469.187 424.551 470.271 423.889 471.554V471.554Z" fill="#212E3E"/>
<path d="M510.419 480.423L457.216 500.219L455.856 505.54L503.467 493.407L510.419 480.423Z" fill="#36465F"/>
<path d="M512.989 475.669L515.483 471.057C515.64 470.762 515.715 470.434 515.702 470.104C515.688 469.775 515.586 469.454 515.406 469.171C515.225 468.888 514.971 468.652 514.667 468.486C514.364 468.319 514.02 468.228 513.669 468.219L431.295 467.225C429.758 467.204 428.248 467.602 426.946 468.37C425.645 469.138 424.609 470.244 423.964 471.554L410.966 497.806L512.989 475.669Z" fill="#36465F"/>
<path d="M423.359 427.208L423.737 429.478C421.986 429.047 420.135 429.146 418.447 429.762C416.407 430.614 415.046 432.246 414.366 434.729C412.024 442.676 425.778 450.622 427.743 451.687L428.423 455.305C437.416 459.775 448.223 455.305 448.223 455.305L451.548 427.066H423.359V427.208V427.208ZM416.936 435.439C417.465 433.736 418.296 432.6 419.581 432.104C421.108 431.611 422.776 431.661 424.266 432.246L427.138 448.565C422.604 445.656 415.575 440.121 416.936 435.439Z" fill="#623890"/>
<path d="M440.817 434.374C441.119 437.07 443.386 436.361 443.16 438.915C442.933 441.399 445.124 442.321 445.351 443.456C445.578 444.591 446.787 443.953 446.938 447.784C446.94 448.381 447.157 448.959 447.556 449.423C447.954 449.888 448.51 450.211 449.13 450.339L451.851 427.279H450.339C446.636 429.124 440.666 432.459 440.817 434.374Z" fill="#14151B"/>
<path d="M424.644 432.175L427.516 448.494C426.911 448.139 426.307 447.713 425.702 447.288L425.929 450.481C426.987 451.119 427.743 451.616 428.121 451.829L428.801 455.447C430.177 456.141 431.654 456.643 433.184 456.937L424.644 432.175Z" fill="#14151B"/>
<path d="M437.869 428.414C445.633 428.414 451.926 427.874 451.926 427.208C451.926 426.542 445.633 426.002 437.869 426.002C430.106 426.002 423.813 426.542 423.813 427.208C423.813 427.874 430.106 428.414 437.869 428.414Z" fill="white"/>
<path d="M437.869 428.414C445.633 428.414 451.926 427.874 451.926 427.208C451.926 426.542 445.633 426.002 437.869 426.002C430.106 426.002 423.813 426.542 423.813 427.208C423.813 427.874 430.106 428.414 437.869 428.414Z" stroke="#623890" stroke-miterlimit="10"/>
<path d="M423.208 437.212C423.208 437.212 428.725 433.949 429.708 434.374C430.69 434.8 428.272 442.889 426.685 443.314C425.098 443.74 422.679 440.618 423.208 437.212Z" fill="#F08984"/>
<path d="M448.979 444.946L453.438 440.973C453.438 440.973 454.647 442.676 454.344 444.024C454.118 445.372 454.193 447.359 453.438 447.359C452.682 447.359 448.979 449.132 448.45 448.92C447.921 448.707 447.996 445.727 448.979 444.946Z" fill="#F08984"/>
<path d="M446.56 443.385C446.56 443.385 449.583 444.591 450.868 443.74C452.228 442.96 454.193 440.618 454.344 439.838C454.495 439.057 453.437 436.077 453.437 436.077L447.392 439.27C447.392 439.199 444.973 442.25 446.56 443.385Z" fill="#F08984"/>
<path d="M443.537 435.013C443.477 435.005 443.419 434.986 443.366 434.957C443.314 434.928 443.269 434.888 443.233 434.842C443.198 434.795 443.173 434.742 443.16 434.686C443.148 434.63 443.147 434.572 443.16 434.516C443.462 433.594 444.142 431.394 445.049 431.181C446.031 430.968 450.641 428.84 452.304 428.13C452.373 428.103 452.448 428.091 452.523 428.094C452.598 428.098 452.671 428.118 452.736 428.152C452.802 428.186 452.858 428.234 452.901 428.292C452.944 428.349 452.972 428.416 452.984 428.485C453.259 430.109 453.234 431.765 452.908 433.381C452.833 433.381 446.334 435.155 443.537 435.013Z" fill="#F08984"/>
<path d="M443.991 439.767C443.991 439.767 445.502 436.645 446.409 436.219C447.392 435.793 453.135 432.742 453.135 432.742C453.135 432.742 454.118 432.529 454.42 433.097C454.765 434.54 454.892 436.02 454.798 437.496C454.647 437.851 452.153 440.334 449.432 440.405C446.712 440.476 443.537 440.689 443.991 439.767Z" fill="#F08984"/>
<path d="M422.377 374.845L464.018 374.277C464.018 374.277 439.079 382.011 440.817 393.86C442.555 405.709 456.309 405.284 455.478 414.436C454.722 423.589 440.817 427.279 440.817 427.279H434.166C434.166 427.279 452.909 418.41 440.817 407.909C428.725 397.408 407.187 387.403 422.377 374.845Z" fill="white"/>
<path d="M339.7 505.114C339.7 505.114 340.683 511.216 342.27 513.771L335.77 517.673C335.77 517.673 331.69 511.429 332.596 507.101L339.7 505.114Z" fill="#14151B"/>
<path d="M345.444 498.445C345.368 498.374 345.368 498.232 345.293 498.161L344.159 495.536L342.119 496.387C339.341 496.09 336.531 496.559 334.032 497.735C331.438 498.759 329.209 500.458 327.609 502.631L325.719 503.482L326.853 505.966C326.928 506.108 326.928 506.25 327.004 506.392C327.08 506.463 327.08 506.533 327.155 506.675V506.746C328.667 509.017 333.579 509.159 338.491 507.101C343.554 504.831 346.729 500.999 345.444 498.445Z" fill="#14151B"/>
<path d="M337.087 504.109C342.216 501.919 345.379 498.09 344.152 495.558C342.925 493.025 337.773 492.747 332.644 494.938C327.515 497.128 324.351 500.956 325.578 503.489C326.805 506.021 331.958 506.299 337.087 504.109Z" fill="#E4E81F"/>
<path d="M337.131 504.121C342.043 501.992 345.141 498.374 344.31 495.82C342.194 494.542 338.113 494.684 334.032 496.387C329.12 498.516 326.022 502.134 326.853 504.689C328.969 506.037 333.05 505.824 337.131 504.121Z" fill="white"/>
<path d="M343.479 493.478C345.897 493.478 345.897 489.93 343.479 489.93C341.061 489.93 341.061 493.478 343.479 493.478Z" fill="#E4E81F"/>
<path d="M332.219 497.026C332.388 497.176 332.54 497.342 332.672 497.522C332.748 497.593 332.748 497.593 332.823 497.593C332.88 497.601 332.934 497.626 332.974 497.664C333.05 497.664 333.125 497.664 333.125 497.593C333.201 497.593 333.201 497.522 333.277 497.522C333.356 497.444 333.409 497.345 333.428 497.239V497.097C333.428 497.026 333.352 496.955 333.277 496.884C333.125 496.742 332.974 496.529 332.823 496.387C332.748 496.316 332.748 496.316 332.672 496.316C332.615 496.309 332.562 496.284 332.521 496.245C332.445 496.245 332.37 496.245 332.37 496.316C332.294 496.316 332.294 496.387 332.219 496.387C332.139 496.465 332.086 496.564 332.067 496.671V496.813C332.106 496.89 332.157 496.962 332.219 497.026Z" fill="#E4E81F"/>
<path d="M333.881 496.387C333.957 496.458 333.957 496.529 334.032 496.6L334.259 496.813C334.335 496.884 334.335 496.884 334.41 496.884C334.467 496.891 334.521 496.916 334.561 496.955C334.637 496.955 334.712 496.955 334.712 496.884C334.788 496.884 334.788 496.813 334.864 496.813L334.939 496.742C334.968 496.714 334.99 496.68 335.003 496.644C335.016 496.607 335.02 496.568 335.015 496.529V496.387C335.015 496.316 334.939 496.245 334.864 496.174L334.712 496.032L334.788 496.103C334.712 496.032 334.712 495.961 334.637 495.891C334.637 495.82 334.561 495.82 334.486 495.749C334.41 495.678 334.41 495.678 334.335 495.678H334.183C334.108 495.678 334.032 495.678 334.032 495.749L333.957 495.82C333.881 495.891 333.881 495.961 333.806 496.032V496.174C333.801 496.213 333.805 496.252 333.818 496.289C333.831 496.326 333.852 496.359 333.881 496.387V496.387Z" fill="#E4E81F"/>
<path d="M335.09 496.103C335.166 496.174 335.166 496.245 335.241 496.316C335.241 496.387 335.317 496.387 335.393 496.458C335.468 496.529 335.468 496.529 335.544 496.529H335.695C335.77 496.529 335.846 496.529 335.846 496.458L335.922 496.387C335.997 496.316 335.997 496.245 336.073 496.174V496.032C336.078 495.994 336.074 495.955 336.061 495.918C336.048 495.881 336.026 495.847 335.997 495.82C335.922 495.749 335.922 495.678 335.846 495.607C335.846 495.536 335.77 495.536 335.695 495.465C335.619 495.394 335.619 495.394 335.544 495.394H335.393C335.317 495.394 335.241 495.394 335.241 495.465L335.166 495.536C335.09 495.607 335.09 495.678 335.015 495.749V495.89C335.01 495.929 335.014 495.968 335.027 496.005C335.04 496.042 335.062 496.075 335.09 496.103V496.103Z" fill="#E4E81F"/>
<path d="M335.997 495.607V495.749C335.997 495.82 335.997 495.891 336.073 495.891C336.073 495.961 336.148 495.961 336.148 496.032C336.224 496.103 336.224 496.103 336.299 496.103C336.357 496.111 336.41 496.136 336.451 496.174H336.602C336.677 496.174 336.753 496.103 336.828 496.032L336.904 495.961C336.933 495.933 336.954 495.9 336.968 495.863C336.981 495.826 336.985 495.787 336.98 495.749V495.607C336.98 495.536 336.98 495.465 336.904 495.465C336.904 495.394 336.828 495.394 336.828 495.323C336.753 495.252 336.753 495.252 336.677 495.252C336.62 495.244 336.567 495.22 336.526 495.181H336.375C336.299 495.181 336.224 495.252 336.148 495.323L336.073 495.394C336.073 495.465 335.997 495.536 335.997 495.607Z" fill="#E4E81F"/>
<path d="M337.433 495.323V495.252C337.433 495.233 337.441 495.215 337.455 495.202C337.469 495.188 337.489 495.181 337.509 495.181V495.252C337.489 495.252 337.469 495.259 337.455 495.273C337.441 495.286 337.433 495.304 337.433 495.323C337.404 495.351 337.383 495.384 337.37 495.421C337.357 495.458 337.352 495.497 337.357 495.536C337.365 495.59 337.392 495.639 337.433 495.678C337.433 495.749 337.509 495.749 337.584 495.819C337.604 495.819 337.623 495.827 337.638 495.84C337.652 495.854 337.66 495.872 337.66 495.89H337.887C337.907 495.89 337.926 495.883 337.94 495.87C337.954 495.856 337.962 495.838 337.962 495.819C338.038 495.749 338.113 495.749 338.113 495.678C338.113 495.607 338.189 495.607 338.189 495.536V495.323V495.181C338.181 495.127 338.154 495.077 338.113 495.039C338.113 494.968 338.038 494.968 337.962 494.897C337.887 494.897 337.887 494.826 337.811 494.826H337.66C337.65 494.826 337.64 494.828 337.631 494.832C337.622 494.835 337.613 494.84 337.606 494.847C337.599 494.854 337.594 494.861 337.59 494.87C337.586 494.879 337.584 494.888 337.584 494.897C337.509 494.968 337.433 494.968 337.433 495.039C337.433 495.048 337.431 495.058 337.427 495.066C337.424 495.075 337.418 495.083 337.411 495.089C337.404 495.096 337.396 495.101 337.386 495.105C337.377 495.108 337.367 495.11 337.357 495.11C337.386 495.138 337.408 495.172 337.421 495.208C337.434 495.245 337.438 495.284 337.433 495.323V495.323Z" fill="#E4E81F"/>
<path d="M338.945 495.181V495.039C338.869 495.039 338.869 495.039 338.945 495.181V495.039C338.945 495.02 338.952 495.002 338.967 494.989C338.981 494.976 339 494.968 339.02 494.968C338.869 495.039 338.869 495.039 338.945 495.181C338.869 495.181 338.869 495.252 338.869 495.323C338.877 495.377 338.903 495.427 338.945 495.465C338.945 495.536 339.02 495.536 339.096 495.607C339.116 495.607 339.135 495.614 339.149 495.627C339.163 495.641 339.171 495.659 339.171 495.678H339.398C339.418 495.678 339.437 495.67 339.451 495.657C339.466 495.644 339.474 495.626 339.474 495.607C339.549 495.536 339.625 495.536 339.625 495.465C339.625 495.394 339.7 495.394 339.7 495.323V495.11V494.968C339.7 494.897 339.7 494.897 339.625 494.826C339.625 494.755 339.549 494.755 339.474 494.684C339.398 494.613 339.398 494.613 339.322 494.613H339.171C339.096 494.613 339.02 494.613 339.02 494.684L338.945 494.755C338.869 494.826 338.869 494.897 338.793 494.968V495.11C338.869 495.039 338.869 495.11 338.945 495.181V495.181Z" fill="#E4E81F"/>
<path d="M340.683 494.613C340.623 494.697 340.596 494.797 340.607 494.897V495.181C340.607 495.252 340.607 495.323 340.683 495.323C340.683 495.394 340.758 495.394 340.758 495.465C340.834 495.536 340.834 495.536 340.909 495.536C340.967 495.543 341.02 495.568 341.061 495.607H341.212C341.287 495.607 341.363 495.536 341.438 495.465L341.514 495.394C341.543 495.366 341.564 495.332 341.577 495.295C341.591 495.259 341.595 495.22 341.59 495.181V495.252C341.584 495.213 341.589 495.174 341.602 495.137C341.615 495.101 341.636 495.067 341.665 495.039C341.665 495.058 341.657 495.076 341.643 495.089C341.629 495.103 341.61 495.11 341.59 495.11V495.11C341.59 495.039 341.665 495.039 341.665 494.968V494.826C341.657 494.772 341.631 494.723 341.59 494.684C341.59 494.613 341.514 494.613 341.438 494.542C341.429 494.542 341.419 494.541 341.41 494.537C341.4 494.533 341.392 494.528 341.385 494.522C341.378 494.515 341.372 494.507 341.369 494.499C341.365 494.49 341.363 494.481 341.363 494.471H341.136C341.116 494.471 341.097 494.479 341.083 494.492C341.069 494.506 341.061 494.524 341.061 494.542C340.758 494.542 340.683 494.542 340.683 494.613Z" fill="#E4E81F"/>
<path d="M341.741 495.11C341.665 495.252 341.665 495.323 341.59 495.465V495.607C341.59 495.678 341.59 495.749 341.665 495.749C341.665 495.82 341.741 495.82 341.816 495.891C341.892 495.961 341.892 495.961 341.967 495.961H342.119C342.16 495.966 342.201 495.962 342.241 495.95C342.28 495.938 342.316 495.917 342.345 495.891L342.421 495.82C342.496 495.749 342.496 495.678 342.572 495.607C342.648 495.465 342.648 495.394 342.723 495.252V495.11C342.723 495.039 342.723 494.968 342.648 494.968C342.648 494.897 342.572 494.897 342.496 494.826C342.421 494.755 342.421 494.755 342.345 494.755H342.194C342.153 494.75 342.111 494.754 342.072 494.767C342.033 494.779 341.997 494.799 341.967 494.826L341.892 494.897C341.816 495.039 341.741 495.039 341.741 495.11Z" fill="#E4E81F"/>
<path d="M343.025 495.181C343.018 495.235 342.991 495.285 342.95 495.323L343.025 495.252L342.95 495.323C342.874 495.394 342.874 495.394 342.874 495.465C342.866 495.519 342.84 495.568 342.799 495.607C342.799 495.678 342.799 495.749 342.874 495.749C342.874 495.82 342.95 495.82 342.95 495.89L343.025 495.961C343.055 495.988 343.091 496.009 343.13 496.021C343.169 496.033 343.211 496.037 343.252 496.032H343.403C343.479 496.032 343.554 495.961 343.63 495.89C343.63 495.872 343.638 495.854 343.652 495.84C343.666 495.827 343.686 495.82 343.706 495.82L343.857 495.678C343.857 495.607 343.932 495.607 343.932 495.536C343.932 495.465 344.008 495.465 344.008 495.394V495.252C344 495.198 343.973 495.148 343.932 495.11C343.932 495.039 343.857 495.039 343.781 494.968C343.761 494.968 343.742 494.961 343.728 494.947C343.714 494.934 343.706 494.916 343.706 494.897H343.479C343.459 494.897 343.44 494.905 343.425 494.918C343.411 494.931 343.403 494.949 343.403 494.968C343.259 495.005 343.128 495.079 343.025 495.181V495.181Z" fill="#E4E81F"/>
<path d="M343.857 495.536C343.781 495.607 343.63 495.678 343.554 495.749L343.479 495.82L343.403 495.891C343.403 495.961 343.328 495.961 343.328 496.032C343.328 496.103 343.252 496.103 343.252 496.174V496.316C343.26 496.37 343.287 496.42 343.328 496.458C343.328 496.529 343.403 496.529 343.479 496.6C343.489 496.6 343.499 496.602 343.508 496.605C343.517 496.609 343.525 496.614 343.532 496.621C343.539 496.627 343.545 496.635 343.549 496.644C343.553 496.652 343.554 496.662 343.554 496.671H343.781C343.801 496.671 343.82 496.664 343.835 496.65C343.849 496.637 343.857 496.619 343.857 496.6C343.932 496.529 344.008 496.529 344.008 496.458L343.932 496.529C344.008 496.458 344.008 496.387 344.083 496.387L344.008 496.458C344.084 496.387 344.083 496.387 344.159 496.387C344.235 496.387 344.235 496.316 344.31 496.245C344.386 496.174 344.386 496.174 344.386 496.103V495.961C344.386 495.89 344.386 495.82 344.31 495.82L344.235 495.749C344.159 495.678 344.084 495.678 344.008 495.607C343.932 495.607 343.932 495.607 343.857 495.536C344.008 495.465 343.932 495.536 343.857 495.536V495.536Z" fill="#E4E81F"/>
<path d="M343.781 496.458C343.781 496.439 343.789 496.421 343.803 496.408C343.818 496.395 343.837 496.387 343.857 496.387L343.781 496.458C343.771 496.458 343.761 496.46 343.752 496.464C343.743 496.467 343.735 496.472 343.728 496.479C343.721 496.486 343.715 496.493 343.711 496.502C343.708 496.511 343.706 496.52 343.706 496.529C343.63 496.6 343.63 496.6 343.63 496.671V496.813C343.63 496.884 343.63 496.955 343.706 496.955L343.781 497.026C343.857 497.097 343.932 497.097 344.008 497.168H344.159C344.2 497.172 344.242 497.169 344.281 497.156C344.32 497.144 344.356 497.124 344.386 497.097V497.097L344.461 497.026L344.537 496.955C344.537 496.884 344.612 496.884 344.612 496.813V496.671C344.605 496.617 344.578 496.567 344.537 496.529C344.537 496.458 344.461 496.458 344.386 496.387C344.366 496.387 344.347 496.38 344.332 496.366C344.318 496.353 344.31 496.335 344.31 496.316H344.083C344.063 496.316 344.044 496.324 344.03 496.337C344.016 496.35 344.008 496.368 344.008 496.387C343.857 496.387 343.781 496.387 343.781 496.458V496.458Z" fill="#E4E81F"/>
<path d="M331.463 497.735C331.549 497.823 331.651 497.895 331.765 497.948C331.841 498.019 331.841 498.019 331.916 498.019C331.974 498.027 332.027 498.051 332.067 498.09C332.143 498.09 332.219 498.09 332.219 498.019C332.294 498.019 332.294 497.948 332.37 497.948L332.445 497.877C332.474 497.849 332.496 497.816 332.509 497.779C332.522 497.742 332.526 497.703 332.521 497.664V497.522C332.521 497.451 332.445 497.381 332.37 497.31C332.284 497.222 332.181 497.15 332.067 497.097C331.992 497.026 331.992 497.026 331.916 497.026C331.859 497.018 331.806 496.993 331.765 496.955C331.69 496.955 331.614 496.955 331.614 497.026C331.538 497.026 331.538 497.097 331.463 497.097L331.387 497.168C331.359 497.196 331.337 497.229 331.324 497.266C331.311 497.303 331.307 497.342 331.312 497.38V497.522C331.387 497.593 331.387 497.664 331.463 497.735Z" fill="#E4E81F"/>
<path d="M330.329 498.516C330.405 498.587 330.48 498.587 330.556 498.658L330.632 498.729C330.707 498.729 330.707 498.8 330.783 498.8H331.009C331.085 498.8 331.161 498.8 331.161 498.729C331.236 498.729 331.236 498.658 331.312 498.587C331.387 498.516 331.387 498.516 331.387 498.445V498.303C331.392 498.264 331.388 498.225 331.375 498.188C331.362 498.152 331.34 498.118 331.312 498.09L331.236 498.019C331.161 497.948 331.085 497.948 331.009 497.877H330.934C330.954 497.877 330.973 497.885 330.987 497.898C331.001 497.911 331.009 497.929 331.009 497.948C330.896 497.895 330.793 497.823 330.707 497.735C330.632 497.735 330.632 497.664 330.556 497.664H330.405C330.348 497.672 330.294 497.697 330.254 497.735C330.178 497.735 330.178 497.806 330.103 497.877C330.103 497.896 330.095 497.914 330.08 497.927C330.066 497.941 330.047 497.948 330.027 497.948V498.161C330.027 498.17 330.029 498.18 330.033 498.188C330.036 498.197 330.042 498.205 330.049 498.211C330.056 498.218 330.064 498.223 330.074 498.227C330.083 498.23 330.093 498.232 330.103 498.232C330.159 498.339 330.236 498.435 330.329 498.516V498.516Z" fill="#E4E81F"/>
<path d="M329.12 499.367C329.196 499.438 329.271 499.438 329.271 499.509H329.347C329.422 499.509 329.422 499.58 329.498 499.58H329.8C329.876 499.58 329.951 499.58 329.951 499.509C330.027 499.509 330.027 499.438 330.102 499.438C330.178 499.367 330.178 499.367 330.178 499.296C330.186 499.242 330.213 499.193 330.254 499.154V499.012C330.254 498.941 330.178 498.871 330.102 498.8L330.027 498.729C329.997 498.702 329.961 498.681 329.922 498.669C329.883 498.657 329.841 498.653 329.8 498.658C329.82 498.658 329.839 498.665 329.854 498.678C329.868 498.692 329.876 498.71 329.876 498.729C329.856 498.729 329.837 498.721 329.822 498.708C329.808 498.695 329.8 498.676 329.8 498.658L329.876 498.729H329.8C329.725 498.658 329.725 498.658 329.649 498.658C329.592 498.65 329.539 498.625 329.498 498.587C329.422 498.587 329.347 498.587 329.347 498.658C329.271 498.658 329.271 498.729 329.196 498.729L329.12 498.8C329.091 498.828 329.07 498.861 329.057 498.898C329.044 498.935 329.039 498.974 329.044 499.012V499.154C328.969 499.225 329.044 499.296 329.12 499.367V499.367Z" fill="#E4E81F"/>
<path d="M328.44 499.793L328.667 500.006L328.818 500.148C328.838 500.148 328.857 500.155 328.871 500.168C328.885 500.182 328.893 500.2 328.893 500.219C328.969 500.219 328.969 500.29 329.044 500.29H329.196C329.253 500.282 329.306 500.257 329.347 500.219C329.422 500.219 329.422 500.148 329.498 500.077C329.498 500.058 329.506 500.04 329.52 500.027C329.534 500.013 329.553 500.006 329.573 500.006V499.793C329.573 499.774 329.566 499.756 329.551 499.743C329.537 499.729 329.518 499.722 329.498 499.722C329.422 499.651 329.422 499.58 329.347 499.58C329.327 499.58 329.307 499.573 329.293 499.559C329.279 499.546 329.271 499.528 329.271 499.509L329.347 499.58C329.271 499.509 329.196 499.509 329.196 499.438L329.271 499.509C329.271 499.438 329.196 499.438 329.12 499.367C329.044 499.296 329.044 499.296 328.969 499.296H328.818C328.742 499.296 328.667 499.296 328.667 499.367L328.591 499.438C328.515 499.509 328.515 499.58 328.44 499.651C328.44 499.722 328.44 499.722 328.44 499.793V499.793Z" fill="#E4E81F"/>
<path d="M327.835 500.715C327.911 500.786 327.986 500.786 328.062 500.857C328.213 500.928 328.289 500.928 328.44 500.999H328.591C328.667 500.999 328.742 500.999 328.742 500.928C328.818 500.928 328.818 500.857 328.893 500.786C328.969 500.715 328.969 500.715 328.969 500.644V500.502C328.974 500.464 328.97 500.425 328.957 500.388C328.944 500.351 328.922 500.318 328.893 500.29L328.818 500.219C328.742 500.148 328.667 500.148 328.591 500.077C328.515 500.077 328.44 500.006 328.364 500.006C328.374 500.006 328.384 500.008 328.393 500.011C328.402 500.015 328.411 500.02 328.418 500.027C328.425 500.033 328.43 500.041 328.434 500.05C328.438 500.058 328.44 500.067 328.44 500.077C328.364 500.006 328.289 500.006 328.213 499.935C328.138 499.935 328.138 499.864 328.062 499.864H327.911C327.854 499.871 327.8 499.896 327.76 499.935C327.684 499.935 327.684 500.006 327.609 500.077C327.54 500.183 327.513 500.309 327.533 500.431C327.533 500.45 327.541 500.468 327.555 500.482C327.569 500.495 327.589 500.502 327.609 500.502L327.835 500.715V500.715Z" fill="#E4E81F"/>
<path d="M327.457 501.496C327.609 501.496 327.76 501.567 327.911 501.567H328.062C328.138 501.567 328.213 501.567 328.213 501.496C328.289 501.496 328.289 501.425 328.364 501.354C328.44 501.283 328.44 501.283 328.44 501.212V501.07C328.445 501.032 328.441 500.992 328.428 500.956C328.415 500.919 328.393 500.885 328.364 500.857L328.289 500.786C328.213 500.715 328.138 500.715 328.062 500.644C327.911 500.644 327.76 500.573 327.609 500.573H327.457C327.382 500.573 327.306 500.573 327.306 500.644C327.231 500.644 327.231 500.715 327.155 500.786C327.08 500.857 327.08 500.857 327.08 500.928V501.07C327.074 501.109 327.079 501.148 327.092 501.185C327.105 501.221 327.126 501.255 327.155 501.283L327.231 501.354C327.306 501.425 327.382 501.425 327.457 501.496Z" fill="#E4E81F"/>
<path d="M327.155 502.347C327.306 502.347 327.382 502.347 327.382 502.418C327.362 502.418 327.343 502.411 327.328 502.397C327.314 502.384 327.306 502.366 327.306 502.347H327.382C327.457 502.347 327.457 502.418 327.533 502.418H327.684C327.741 502.411 327.795 502.386 327.835 502.347C327.911 502.347 327.911 502.276 327.986 502.205C327.986 502.186 327.994 502.168 328.009 502.155C328.023 502.142 328.042 502.134 328.062 502.134V501.922C328.062 501.78 327.986 501.709 327.835 501.638C327.806 501.611 327.77 501.59 327.73 501.578C327.691 501.566 327.65 501.562 327.609 501.567H327.08C327.004 501.567 326.928 501.567 326.928 501.638C326.853 501.638 326.853 501.709 326.777 501.709C326.702 501.78 326.702 501.78 326.702 501.851C326.694 501.904 326.667 501.954 326.626 501.992V502.134C326.626 502.205 326.702 502.276 326.777 502.347L326.853 502.418C326.945 502.369 327.049 502.344 327.155 502.347V502.347Z" fill="#E4E81F"/>
<path d="M326.853 503.199H327.08C327.06 503.199 327.04 503.191 327.026 503.178C327.012 503.165 327.004 503.147 327.004 503.128H327.08L327.004 503.057C327.087 503.132 327.193 503.181 327.306 503.199C327.382 503.199 327.457 503.199 327.457 503.128C327.533 503.128 327.533 503.057 327.609 503.057C327.688 502.979 327.741 502.88 327.76 502.773C327.759 502.718 327.744 502.664 327.718 502.615C327.692 502.566 327.655 502.523 327.609 502.489C327.533 502.418 327.533 502.418 327.457 502.347V502.347C327.382 502.347 327.382 502.276 327.306 502.276H326.777C326.702 502.276 326.626 502.276 326.626 502.347C326.551 502.347 326.551 502.418 326.475 502.418C326.399 502.489 326.399 502.489 326.399 502.56C326.391 502.614 326.365 502.664 326.324 502.702V502.844C326.324 502.915 326.399 502.986 326.475 503.057C326.578 503.145 326.713 503.196 326.853 503.199V503.199Z" fill="#E4E81F"/>
<path d="M326.551 503.979C326.78 503.991 327.01 503.967 327.231 503.908C327.288 503.901 327.341 503.876 327.382 503.837C327.457 503.837 327.457 503.766 327.533 503.695C327.533 503.624 327.609 503.624 327.609 503.553V503.412C327.609 503.27 327.533 503.199 327.382 503.128C327.362 503.128 327.343 503.12 327.328 503.107C327.314 503.094 327.306 503.076 327.306 503.057H326.626C326.551 503.057 326.475 503.057 326.475 503.128C326.399 503.128 326.399 503.199 326.324 503.199C326.248 503.27 326.248 503.27 326.248 503.341C326.24 503.394 326.214 503.444 326.173 503.482C326.174 503.537 326.188 503.591 326.214 503.64C326.24 503.689 326.278 503.732 326.324 503.766C326.319 503.795 326.322 503.825 326.332 503.852C326.342 503.88 326.358 503.905 326.38 503.926C326.402 503.947 326.429 503.962 326.459 503.971C326.488 503.981 326.52 503.983 326.551 503.979V503.979Z" fill="#E4E81F"/>
<path d="M326.853 504.689H327.08C327.155 504.689 327.231 504.689 327.231 504.618C327.306 504.618 327.306 504.547 327.382 504.476C327.457 504.405 327.457 504.405 327.457 504.334V504.192C327.463 504.153 327.458 504.114 327.445 504.078C327.432 504.041 327.411 504.007 327.382 503.979L327.306 503.908C327.231 503.837 327.155 503.837 327.08 503.766H326.626C326.551 503.766 326.475 503.837 326.399 503.837H326.324C326.248 503.837 326.248 503.908 326.173 503.908C326.097 503.979 326.097 503.979 326.097 504.05C326.089 504.104 326.063 504.154 326.022 504.192C326.022 504.263 326.022 504.334 326.097 504.334C326.097 504.405 326.173 504.405 326.173 504.476C326.256 504.551 326.361 504.6 326.475 504.618H326.626C326.777 504.76 326.853 504.76 326.853 504.689V504.689Z" fill="#E4E81F"/>
<path d="M327.457 505.256H327.382C327.457 505.256 327.533 505.256 327.533 505.185C327.609 505.185 327.609 505.114 327.684 505.114C327.76 505.043 327.76 505.043 327.76 504.972C327.768 504.919 327.794 504.869 327.835 504.831V504.689C327.835 504.618 327.76 504.547 327.684 504.476L327.609 504.405C327.579 504.378 327.543 504.358 327.504 504.345C327.465 504.333 327.423 504.329 327.382 504.334H327.231C327.155 504.334 327.155 504.405 327.08 504.405H327.004C326.928 504.405 326.928 504.476 326.853 504.476C326.777 504.547 326.777 504.547 326.777 504.618C326.769 504.672 326.743 504.721 326.702 504.76C326.702 504.831 326.702 504.902 326.777 504.902C326.777 504.972 326.853 504.972 326.853 505.043L326.928 505.114C326.958 505.141 326.994 505.162 327.033 505.174C327.072 505.186 327.114 505.19 327.155 505.185H327.306C327.382 505.398 327.382 505.327 327.457 505.256V505.256Z" fill="#E4E81F"/>
<path d="M337.087 504.109C342.216 501.919 345.379 498.09 344.152 495.558C342.925 493.025 337.773 492.747 332.644 494.938C327.515 497.128 324.351 500.956 325.578 503.489C326.805 506.021 331.958 506.299 337.087 504.109Z" stroke="black" stroke-miterlimit="10"/>
<path d="M336.137 497.938C337.125 497.517 337.729 496.77 337.488 496.271C337.246 495.771 336.249 495.708 335.261 496.13C334.273 496.552 333.668 497.299 333.91 497.798C334.152 498.297 335.149 498.36 336.137 497.938Z" fill="#E4E81F"/>
<path d="M332.127 499.995C333.115 499.574 333.72 498.827 333.478 498.327C333.236 497.828 332.239 497.765 331.251 498.187C330.263 498.609 329.659 499.356 329.9 499.855C330.142 500.354 331.139 500.417 332.127 499.995Z" fill="#E4E81F"/>
<path d="M335.175 500.092C335.935 499.768 336.411 499.215 336.238 498.859C336.066 498.502 335.31 498.476 334.55 498.8C333.79 499.125 333.314 499.677 333.487 500.034C333.659 500.39 334.416 500.416 335.175 500.092Z" fill="#E4E81F"/>
<path d="M335.317 504.334C335.317 504.192 334.939 501.212 334.939 501.212L339.247 496.245" stroke="black" stroke-miterlimit="10"/>
<path d="M312.57 451.19L337.282 452.183V461.265L312.57 451.19Z" fill="#6E6FDC"/>
<path d="M312.57 451.19L337.282 452.183V461.265" stroke="black" stroke-miterlimit="10"/>
<path d="M351.263 417.346L348.693 437.212L355.117 424.441L351.263 417.346Z" fill="#14151B"/>
<path d="M348.693 435.155L355.042 410.534L359.425 412.663L369.854 406.703L374.615 408.476L378.696 391.873L381.568 389.816C381.568 389.816 394.188 388.61 397.362 385.984C400.536 383.288 391.165 372.503 391.165 372.503L372.121 368.814C372.121 368.814 364.564 359.59 362.372 358.526C360.181 357.532 345.671 365.834 345.671 365.834L341.287 389.532L321.412 411.173L348.769 421.248L348.693 435.155Z" fill="#F4BEB0"/>
<path d="M356.251 411.102C356.326 411.102 356.251 411.102 356.175 410.96L356.251 411.102Z" fill="#F08984"/>
<path d="M380.888 373.639L349.978 365.763L344.461 371.652L341.136 389.461L321.26 411.102L322.318 413.301L346.2 401.807C346.2 401.807 355.268 409.896 356.251 411.031C355.948 409.825 358.064 399.749 358.064 399.749L368.796 385.062H388.974L387.538 378.676L380.888 373.639Z" fill="#F08984"/>
<path d="M397.287 385.913C400.461 383.217 391.09 372.432 391.09 372.432L372.045 368.743C372.045 368.743 364.488 359.519 362.297 358.455C360.105 357.461 345.595 365.763 345.595 365.763L341.212 389.461L333.957 397.337L344.537 396.131L347.862 393.647C347.862 393.647 342.799 386.41 347.862 383.146C352.926 379.882 354.361 392.015 354.361 392.015L356.175 393.151C356.265 393.215 356.37 393.26 356.481 393.281C356.592 393.301 356.707 393.298 356.816 393.27C356.926 393.243 357.027 393.192 357.113 393.122C357.198 393.052 357.265 392.965 357.309 392.867L361.239 385.417L363.506 384.211C365.209 383.295 367.096 382.722 369.047 382.527C370.998 382.331 372.971 382.518 374.842 383.075H374.917L385.497 382.366L381.719 389.745C381.568 389.816 394.188 388.61 397.287 385.913Z" fill="#14151B"/>
<path d="M329.649 401.949C329.649 401.949 325.87 403.013 327.986 406.916C330.102 410.889 348.618 421.106 348.618 421.106L335.393 428.982L316.424 410.889L324.586 403.723C326.005 402.601 327.794 401.974 329.649 401.949Z" fill="#6E6FDC"/>
<path d="M327.986 406.986C325.87 403.013 329.649 402.02 329.649 402.02C328.712 402.008 327.782 402.172 326.913 402.501C326.044 402.83 325.253 403.317 324.586 403.935L316.424 411.102L320.58 415.075L330.329 409.541C329.443 408.78 328.656 407.922 327.986 406.986Z" fill="#212E3E"/>
<path d="M1002.78 299.635C999.679 297.08 994.54 294.029 988.494 291.404C982.448 288.708 976.78 286.934 972.623 286.366L967.938 284.309L966.427 287.218C965.142 289.701 973.001 295.661 983.884 300.486C994.766 305.311 1004.67 307.227 1005.95 304.672L1007.46 301.763L1002.78 299.635Z" fill="#858585"/>
<path d="M974.588 288.282L973.152 287.36C972.019 288.779 970.885 290.198 969.827 291.617C969.753 291.774 969.651 291.918 969.525 292.043C969.752 292.255 970.054 292.468 970.281 292.681C971.717 291.191 973.152 289.701 974.588 288.282Z" fill="white"/>
<path d="M982.826 293.533L980.105 291.83C978.745 293.391 977.385 294.952 975.949 296.442C976.327 296.654 976.704 296.867 977.158 297.08C979.047 295.874 980.936 294.668 982.826 293.533Z" fill="white"/>
<path d="M970.583 285.728L968.769 284.592L968.391 284.451L967.031 289.488C967.107 289.63 967.258 289.772 967.333 289.914C968.391 288.495 969.449 287.076 970.583 285.728Z" fill="white"/>
<path d="M1007.48 301.697C1008.74 299.179 1000.92 293.227 990 288.403C979.084 283.579 969.211 281.709 967.949 284.227C966.687 286.745 974.513 292.697 985.429 297.521C996.345 302.345 1006.22 304.215 1007.48 301.697Z" fill="#858585"/>
<path d="M472.331 454.241C476.563 455.164 482.533 455.305 489.032 454.525C495.532 453.744 501.2 452.112 504.903 450.268L510.042 449.629L509.21 445.443C508.53 441.895 498.328 440.192 486.538 441.611C474.749 443.031 465.756 447.075 466.436 450.622L467.267 454.809L472.331 454.241Z" fill="#858585"/>
<path d="M489.448 458.749C501.295 457.376 510.517 453.363 510.047 449.785C509.577 446.207 499.591 444.419 487.744 445.792C475.897 447.165 466.675 451.178 467.145 454.756C467.615 458.334 477.601 460.122 489.448 458.749Z" fill="#858585"/>
<path d="M529.086 394.641C526.592 392.157 522.436 389.603 517.372 387.758C512.309 385.842 507.397 385.062 503.769 385.275L499.839 383.785L498.101 387.829C496.665 391.306 502.862 396.84 512.082 400.246C521.226 403.652 529.842 403.652 531.353 400.175L533.091 396.131L529.086 394.641Z" fill="#858585"/>
<path d="M532.988 396.053C534.45 392.593 528.214 387.022 519.059 383.611C509.903 380.199 501.295 380.239 499.833 383.699C498.37 387.159 504.606 392.73 513.762 396.141C522.917 399.552 531.525 399.513 532.988 396.053Z" fill="#858585"/>
<path d="M551.607 348.592C555.159 349.018 560.146 348.592 565.437 347.173C570.727 345.825 575.261 343.838 578.057 341.781L582.214 340.716L581.156 337.027C580.249 333.905 571.709 333.337 562.111 335.821C552.514 338.304 545.485 342.774 546.392 345.896L547.45 349.585L551.607 348.592Z" fill="#858585"/>
<path d="M566.493 350.95C576.078 348.5 583.11 343.97 582.2 340.831C581.29 337.693 572.782 337.135 563.197 339.585C553.613 342.035 546.581 346.565 547.491 349.704C548.401 352.842 556.908 353.4 566.493 350.95Z" fill="#858585"/>
<path d="M631.487 316.734C630.463 312.993 628.722 309.459 626.348 306.304C623.628 302.544 620.605 299.564 617.96 297.932L615.844 294.952L612.896 296.796C610.402 298.428 612.292 305.24 617.204 312.051C622.116 318.863 628.162 323.12 630.656 321.488L633.603 319.643L631.487 316.734Z" fill="#858585"/>
<path d="M633.557 319.629C636.081 318.027 634.147 311.202 629.238 304.385C624.328 297.568 618.302 293.34 615.778 294.942C613.254 296.545 615.188 303.37 620.097 310.187C625.007 317.004 631.033 321.232 633.557 319.629Z" fill="#858585"/>
<path d="M676.604 298.286C678.575 295.903 680.084 293.213 681.063 290.34C682.163 287.499 682.701 284.493 682.65 281.471L683.557 278.845L680.912 277.994C678.645 277.284 675.093 281.683 672.901 287.785C670.71 293.887 670.785 299.422 673.052 300.131L675.697 300.983L676.604 298.286Z" fill="#858585"/>
<path d="M680.912 280.548C680.988 280.619 681.063 280.619 681.139 280.69L681.819 279.626L678.342 278.845L678.04 279.2C679.034 279.578 679.994 280.029 680.912 280.548V280.548Z" fill="white"/>
<path d="M679.023 283.954L679.476 283.173C678.796 282.819 678.116 282.464 677.436 282.18C677.058 282.038 676.755 281.825 676.378 281.683C676.226 281.612 676.151 281.541 676 281.541L675.546 282.038C675.395 282.251 675.32 282.464 675.168 282.677L679.023 283.954Z" fill="white"/>
<path d="M673.733 285.444C673.657 285.586 673.657 285.657 673.581 285.799L676.907 286.437C675.849 286.083 674.791 285.728 673.733 285.444Z" fill="white"/>
<path d="M683.665 291.185C685.832 285.089 685.76 279.574 683.504 278.867C681.247 278.16 677.661 282.528 675.493 288.623C673.325 294.719 673.397 300.234 675.653 300.942C677.91 301.649 681.497 297.281 683.665 291.185Z" fill="#858585"/>
<path d="M728.069 264.797C727.23 263.538 726.155 262.432 724.895 261.533C723.69 260.571 722.307 259.825 720.814 259.333L719.681 258.482L718.85 259.475C718.094 260.327 719.681 262.668 722.25 264.655C724.82 266.641 727.616 267.564 728.372 266.712L729.203 265.719L728.069 264.797Z" fill="#858585"/>
<path d="M729.236 265.632C729.971 264.779 728.435 262.47 725.806 260.474C723.177 258.479 720.45 257.553 719.715 258.406C718.98 259.26 720.516 261.569 723.145 263.564C725.774 265.56 728.501 266.486 729.236 265.632Z" fill="#858585"/>
<path d="M936.877 281.471C930.589 283.311 924.965 286.749 920.629 291.404L918.06 292.965L919.42 294.881C920.554 296.513 926.222 294.952 932.116 291.333C938.011 287.714 941.865 283.457 940.732 281.825L939.371 279.91L936.877 281.471Z" fill="#858585"/>
<path d="M924.786 294.597C924.408 293.958 924.03 293.32 923.728 292.681L922.896 292.61C923.142 293.214 923.419 293.806 923.728 294.384C923.838 294.627 923.965 294.864 924.106 295.094C924.394 295.031 924.673 294.935 924.937 294.81C924.861 294.739 924.861 294.668 924.786 294.597Z" fill="white"/>
<path d="M920.78 295.448C920.254 294.421 919.824 293.353 919.496 292.255H919.42L919.042 292.468L920.251 295.377C920.403 295.448 920.629 295.448 920.856 295.519C920.856 295.5 920.848 295.482 920.834 295.469C920.82 295.456 920.8 295.448 920.78 295.448Z" fill="white"/>
<path d="M930.736 289.434C936.612 285.84 940.452 281.595 939.312 279.953C938.173 278.311 932.486 279.894 926.61 283.489C920.734 287.083 916.894 291.328 918.033 292.97C919.173 294.612 924.86 293.029 930.736 289.434Z" fill="#858585"/>
<path d="M867.199 270.118C870.397 275.16 875.029 279.263 880.576 281.967L882.692 283.812L884.354 282.18C885.715 280.832 882.918 276.22 878.082 271.892C873.245 267.564 868.182 265.222 866.821 266.57L865.159 268.202L867.199 270.118Z" fill="#858585"/>
<path d="M882.698 283.867C884.074 282.499 881.254 277.899 876.4 273.592C871.545 269.284 866.493 266.901 865.117 268.269C863.741 269.636 866.56 274.236 871.415 278.544C876.27 282.851 881.322 285.234 882.698 283.867Z" fill="#858585"/>
<path d="M826.012 269.409C827.668 268.753 829.18 267.815 830.471 266.641C831.837 265.536 832.988 264.215 833.872 262.739L835.081 261.675L834.098 260.61C833.267 259.759 830.244 260.965 827.372 263.378C824.501 265.79 822.838 268.486 823.669 269.338L824.652 270.402L826.012 269.409Z" fill="#858585"/>
<path d="M831.502 267.637C834.362 265.233 836.004 262.573 835.169 261.697C834.334 260.822 831.338 262.061 828.477 264.466C825.616 266.87 823.974 269.53 824.81 270.405C825.645 271.281 828.641 270.042 831.502 267.637Z" fill="#858585"/>
<path d="M868.862 268.557L874.832 281.329L873.17 271.04L868.862 268.557Z" fill="white"/>
<path d="M833.04 261.675L832.133 260.61L830.244 261.533L830.924 262.739L833.04 261.675Z" fill="white"/>
<path d="M767.821 256.921C767.075 258.369 766.614 259.931 766.46 261.533C766.233 263.114 766.285 264.72 766.612 266.287L766.385 267.777L767.745 267.919C768.954 268.06 770.239 265.435 770.693 262.029C771.146 258.624 770.541 255.786 769.332 255.644L767.972 255.502L767.821 256.921Z" fill="#858585"/>
<path d="M769.264 261.938C769.701 258.554 769.114 255.703 767.954 255.571C766.794 255.439 765.5 258.076 765.063 261.46C764.627 264.845 765.213 267.696 766.373 267.827C767.534 267.959 768.828 265.323 769.264 261.938Z" fill="#858585"/>
<path d="M767.972 266.57L769.257 266.783L770.088 265.08L768.803 264.584L767.972 266.57Z" fill="white"/>
<path d="M924.106 292.752L927.129 283.315L919.496 293.603C920.554 293.745 922.216 293.391 924.106 292.752Z" fill="white"/>
<path d="M968.013 285.728L978.972 284.38L969.223 287.431L968.013 285.728Z" fill="white"/>
<path d="M725.802 260.468L725.198 264.938L727.389 265.861L725.802 260.468Z" fill="white"/>
<path d="M684.464 279.555L674.035 294.526C674.035 294.526 673.052 298.144 674.337 299.564L685.144 281.612L684.464 279.555Z" fill="white"/>
<path d="M623.703 298.215L622.948 313.754C624.388 315.403 626.038 316.88 627.86 318.153L625.97 300.415C625.215 299.635 624.459 298.854 623.703 298.215Z" fill="white"/>
<path d="M632.243 309.142C631.358 307.506 630.374 305.919 629.296 304.388C628.418 303.151 627.459 301.966 626.424 300.841L630.203 319.43C630.845 319.711 631.536 319.879 632.243 319.927V309.142Z" fill="white"/>
<path d="M575.11 334.401L576.017 338.091L570.273 349.798L579.418 338.659L578.511 335.04L575.11 334.401Z" fill="white"/>
<path d="M519.035 383.643L521.982 398.33L521.378 402.516L523.267 402.729L524.174 398.614L519.035 383.643Z" fill="white"/>
<path d="M520.697 384.281L526.214 397.621L524.174 385.913L520.697 384.281Z" fill="white"/>
<path d="M506.868 443.101L507.774 447.288L500.973 456.299L504.374 446.152L503.089 441.753H507.019L506.868 443.101Z" fill="white"/>
<g opacity="0.47">
<path opacity="0.47" d="M618.564 446.862C618.564 446.862 590.602 456.654 581.458 467.013C581.458 467.084 612.821 458.002 618.564 446.862Z" fill="#FCD535" fill-opacity="0.8"/>
<path opacity="0.47" d="M617.506 433.665C617.657 433.097 587.731 449.132 584.028 458.002C584.028 458.002 613.576 447.501 617.506 433.665Z" fill="#FCD535" fill-opacity="0.8"/>
<path opacity="0.47" d="M614.181 422.88C614.181 422.88 591.283 438.419 586.975 447.642C586.975 447.642 606.17 436.29 614.181 422.88Z" fill="#FCD535" fill-opacity="0.8"/>
<path opacity="0.47" d="M589.242 439.554C589.242 439.554 602.014 427.776 606.699 413.088C606.699 413.088 592.038 429.691 590.3 435.793C590.3 435.793 596.497 421.319 591.963 408.122C591.963 408.122 588.94 427.705 589.242 439.554Z" fill="#FCD535" fill-opacity="0.8"/>
<path opacity="0.47" d="M586.975 447.642C586.975 447.642 577.377 429.053 579.644 413.443C579.569 413.443 590.678 434.658 586.975 447.642Z" fill="#FCD535" fill-opacity="0.8"/>
<path opacity="0.47" d="M584.027 458.002C584.027 458.002 569.291 439.838 569.971 420.113C569.971 420.113 584.405 442.889 584.027 458.002Z" fill="#FCD535" fill-opacity="0.8"/>
<path opacity="0.47" d="M581.458 467.084C581.458 467.084 563.698 446.862 562.489 432.033C562.489 432.033 579.871 451.403 581.458 467.084Z" fill="#FCD535" fill-opacity="0.8"/>
<path opacity="0.47" d="M577.755 479.926C577.755 479.926 555.083 457.647 554.856 440.618C554.856 440.689 577.377 464.033 577.755 479.926Z" fill="#FCD535" fill-opacity="0.8"/>
<path opacity="0.47" d="M618.716 459.705C618.716 459.705 587.202 463.891 577.755 479.926C577.755 479.926 608.135 473.469 618.716 459.705Z" fill="#FCD535" fill-opacity="0.8"/>
<path opacity="0.47" d="M616.751 469.496C616.751 469.496 585.161 477.656 574.732 490.711C574.656 490.711 594.759 486.454 616.751 469.496Z" fill="#FCD535" fill-opacity="0.8"/>
<path opacity="0.47" d="M550.7 451.687C550.7 451.687 567.553 466.232 574.656 490.782C574.656 490.711 549.415 465.594 550.7 451.687Z" fill="#FCD535" fill-opacity="0.8"/>
<path opacity="0.47" d="M546.997 463.11C546.997 463.11 567.93 486.879 571.936 500.431C571.936 500.431 548.886 482.906 546.997 463.11Z" fill="#FCD535" fill-opacity="0.8"/>
<path opacity="0.47" d="M613.199 480.636C613.199 480.636 580.249 490.072 571.936 500.431C571.936 500.431 605.112 491.917 613.199 480.636Z" fill="#FCD535" fill-opacity="0.8"/>
<path opacity="0.47" d="M559.466 505.043H574.656L571.936 511.926L579.266 532.289H554.252L563.094 511.926L559.466 505.043Z" fill="#FCD535" fill-opacity="0.8"/>
</g>
<g opacity="0.64">
<path opacity="0.64" d="M652.497 388.751C668.858 388.751 682.121 376.299 682.121 360.938C682.121 345.577 668.858 333.124 652.497 333.124C636.135 333.124 622.872 345.577 622.872 360.938C622.872 376.299 636.135 388.751 652.497 388.751Z" fill="white"/>
<path opacity="0.64" d="M540.649 479.642C557.093 479.642 570.424 467.126 570.424 451.687C570.424 436.247 557.093 423.731 540.649 423.731C524.204 423.731 510.873 436.247 510.873 451.687C510.873 467.126 524.204 479.642 540.649 479.642Z" fill="white"/>
<path opacity="0.64" d="M601.334 324.752C607.344 324.752 612.216 320.177 612.216 314.535C612.216 308.892 607.344 304.317 601.334 304.317C595.323 304.317 590.451 308.892 590.451 314.535C590.451 320.177 595.323 324.752 601.334 324.752Z" fill="white"/>
<path opacity="0.64" d="M938.691 451.261C944.701 451.261 949.574 446.687 949.574 441.044C949.574 435.401 944.701 430.827 938.691 430.827C932.681 430.827 927.809 435.401 927.809 441.044C927.809 446.687 932.681 451.261 938.691 451.261Z" fill="white"/>
<path opacity="0.64" d="M980.181 417.558C989.572 417.558 997.185 410.411 997.185 401.594C997.185 392.777 989.572 385.63 980.181 385.63C970.79 385.63 963.177 392.777 963.177 401.594C963.177 410.411 970.79 417.558 980.181 417.558Z" fill="white"/>
<path opacity="0.64" d="M889.493 362.854C914.703 362.854 935.139 343.667 935.139 319.998C935.139 296.329 914.703 277.142 889.493 277.142C864.284 277.142 843.847 296.329 843.847 319.998C843.847 343.667 864.284 362.854 889.493 362.854Z" fill="white"/>
</g>
<path d="M829.715 289.843C829.715 289.843 829.866 294.313 826.919 294.81C826.843 294.81 826.843 294.952 826.919 294.952C827.901 295.164 830.017 296.158 830.017 299.918C830.017 299.918 829.942 295.519 832.965 295.023C833.04 295.023 833.04 294.881 832.965 294.881C831.982 294.597 829.866 293.674 829.715 289.843Z" fill="white"/>
<path d="M1000.21 312.051C1000.21 312.051 1000.28 315.102 998.243 315.528C998.167 315.528 998.167 315.599 998.243 315.599C998.923 315.741 1000.36 316.45 1000.43 319.005C1000.43 319.005 1000.36 315.954 1002.47 315.599C1002.55 315.599 1002.55 315.528 1002.47 315.528C1001.79 315.315 1000.28 314.677 1000.21 312.051Z" fill="white"/>
<path d="M405.827 458.924C405.827 458.924 406.129 467.155 400.612 468.148C400.582 468.148 400.553 468.159 400.532 468.179C400.511 468.199 400.499 468.226 400.499 468.254C400.499 468.283 400.511 468.31 400.532 468.33C400.553 468.35 400.582 468.361 400.612 468.361C402.426 468.786 406.28 470.56 406.356 477.514C406.356 477.514 406.204 469.354 411.797 468.432C411.827 468.432 411.856 468.42 411.877 468.401C411.898 468.381 411.91 468.353 411.91 468.325C411.91 468.297 411.898 468.27 411.877 468.25C411.856 468.23 411.827 468.219 411.797 468.219C409.983 467.722 406.053 465.948 405.827 458.924Z" fill="white"/>
<path d="M534.603 430.259C534.603 430.259 534.754 434.658 531.807 435.226C531.731 435.226 531.731 435.368 531.807 435.368C532.789 435.58 534.83 436.574 534.905 440.263C534.905 440.263 534.83 435.864 537.852 435.368C537.928 435.368 537.928 435.226 537.852 435.226C536.87 435.013 534.754 434.019 534.603 430.259Z" fill="white"/>
<path d="M411.646 472.902C411.646 472.902 411.797 476.875 409.152 477.301C409.076 477.301 409.076 477.372 409.152 477.443C410.059 477.656 411.872 478.507 411.948 481.842C411.948 481.842 411.872 477.939 414.593 477.443C414.669 477.443 414.669 477.372 414.593 477.301C413.686 477.088 411.797 476.237 411.646 472.902Z" fill="white"/>
<path d="M886.395 469.354H864.252V532.715H886.395V469.354Z" fill="#FCD535"/>
<path d="M748.172 524.485H726.029V532.928H748.172V524.485Z" fill="#FCD535"/>
<path d="M667.838 483.261H645.695V532.502H667.838V483.261Z" fill="#FCD535"/>
<path d="M700.939 532.857V483.687L667.913 483.261V539.03L700.939 539.385V532.857Z" fill="white"/>
<path d="M689.225 480.636H660.129V483.616H689.225V480.636Z" fill="#FCD535"/>
<path d="M689.301 474.392H672.372V482.268H689.301V474.392Z" fill="#FCD535"/>
<path d="M695.649 487.802H691.946V529.877H695.649V487.802Z" fill="#FCD535" fill-opacity="0.8"/>
<g opacity="0.42">
<path opacity="0.42" d="M1258.36 516.893C1258.36 516.893 1261.84 492.059 1305.82 483.261C1305.82 483.261 1296.08 511.784 1278.62 518.666C1261.09 525.62 1256.02 521.221 1256.02 521.221L1233.43 532.147L1231.46 535.057C1231.46 535.057 1254.06 530.303 1253.23 537.611C1252.47 544.919 1241.66 549.318 1225.87 547.473V526.258C1225.87 526.258 1231.84 524.414 1236.9 527.748L1250.13 509.088L1244.31 523.349L1258.36 516.893Z" fill="#858585" fill-opacity="0.8"/>
<path opacity="0.42" d="M746.358 514.196C746.358 514.196 762.606 512.068 768.199 486.667C768.199 486.667 749.608 492.414 745.149 502.489C740.69 512.635 743.562 515.544 743.562 515.544L736.458 528.6L734.569 529.735C734.569 529.735 737.592 516.68 732.831 517.176C728.069 517.673 725.198 523.917 726.482 532.999L740.312 532.928C740.312 532.928 741.521 529.451 739.33 526.542L751.497 518.808L742.202 522.214L746.358 514.196Z" fill="#858585" fill-opacity="0.8"/>
<path opacity="0.42" d="M1225.94 515.686C1225.94 515.686 1244.01 510.72 1250.58 483.332C1250.58 483.332 1230.86 495.394 1225.94 504.547V515.686Z" fill="#858585" fill-opacity="0.8"/>
<path opacity="0.42" d="M952.974 522.356C952.974 522.356 943.301 511.145 910.503 519.447C910.503 519.447 926.297 532.36 940.505 533.921L952.974 522.356Z" fill="#858585" fill-opacity="0.8"/>
<path opacity="0.42" d="M1285.95 541.017C1285.95 541.017 1261.46 539.952 1234.18 560.387L1225.87 558.187V560.387L1234.94 563.296C1234.94 563.296 1244.69 571.668 1260.25 563.296C1275.9 554.923 1285.95 541.017 1285.95 541.017Z" fill="#858585" fill-opacity="0.8"/>
<path opacity="0.42" d="M1238.26 595.438C1238.26 595.438 1243.7 578.622 1225.94 576.067V589.619L1238.26 595.438Z" fill="#858585" fill-opacity="0.8"/>
<path opacity="0.42" d="M708.043 532.644C708.043 532.644 701.619 527.039 702.753 514.977C706.714 516.579 710.239 519 713.065 522.059C715.891 525.118 717.946 528.736 719.076 532.644H708.043Z" fill="#858585" fill-opacity="0.8"/>
<path opacity="0.42" d="M722.628 496.884C722.628 496.884 709.176 505.256 719.152 523.775C719.152 523.846 733.133 517.176 722.628 496.884Z" fill="#858585" fill-opacity="0.8"/>
<path opacity="0.42" d="M214.854 506.392C214.854 506.392 228.306 514.764 218.33 533.283C218.406 533.283 204.349 526.613 214.854 506.392Z" fill="#858585" fill-opacity="0.8"/>
<path opacity="0.42" d="M812.56 532.644C812.56 532.644 810.822 498.516 845.283 489.221C845.283 489.221 846.417 501.992 820.797 510.933H840.069L818.606 517.176C818.53 517.176 814.903 517.46 812.56 532.644Z" fill="#858585" fill-opacity="0.8"/>
<path opacity="0.42" d="M816.036 482.693C816.036 482.693 826.919 480.352 823.82 501.78C818.899 496.484 816.141 489.72 816.036 482.693V482.693Z" fill="#858585" fill-opacity="0.8"/>
<path opacity="0.42" d="M809.008 532.644C809.008 532.644 796.765 518.099 798.503 492.13C798.503 492.201 818.379 502.134 809.008 532.644Z" fill="#858585" fill-opacity="0.8"/>
<path opacity="0.42" d="M798.428 532.644C798.428 532.644 785.354 505.824 789.435 480.919C789.435 480.919 803.265 476.449 798.428 461.053C798.428 461.053 781.5 462.188 785.354 480.919C785.354 480.919 783.767 498.374 789.813 512.423C789.813 512.423 773.942 499.793 773.942 512.423C773.942 525.052 780.971 530.516 780.971 530.516C780.971 530.516 761.926 515.615 762.077 532.644H798.428Z" fill="#858585" fill-opacity="0.8"/>
<path opacity="0.42" d="M768.199 519.305C768.199 519.305 763.135 519.802 761.624 512.423C761.624 512.423 762.455 505.895 768.199 519.305Z" fill="#858585" fill-opacity="0.8"/>
<path opacity="0.42" d="M894.934 503.624C894.934 503.624 890.778 493.762 894.934 485.46C894.934 485.389 901.358 492.414 894.934 503.624Z" fill="#858585" fill-opacity="0.8"/>
<path opacity="0.42" d="M197.925 551.943C197.925 551.943 197.321 541.371 189.839 535.411C189.839 535.411 187.043 544.28 197.925 551.943Z" fill="#858585" fill-opacity="0.8"/>
<path opacity="0.42" d="M961.136 515.97C961.136 515.97 944.661 520.795 920.78 499.509C920.78 499.509 933.93 488.795 961.136 515.97Z" fill="#858585" fill-opacity="0.8"/>
<path opacity="0.42" d="M883.599 542.294C883.599 542.294 905.061 518.099 890.173 501.921C875.286 485.744 850.876 509.513 850.876 509.513C850.876 509.513 871.054 520.298 889.871 512.423C889.871 512.493 901.207 514.409 883.599 542.294Z" fill="#858585" fill-opacity="0.8"/>
<path opacity="0.42" d="M890.929 512.635C890.929 512.635 886.47 526.897 870.902 527.181C870.902 527.181 879.366 511.5 890.929 512.635Z" fill="#858585" fill-opacity="0.8"/>
<path opacity="0.42" d="M855.637 529.664C855.637 529.664 843.469 532.006 837.65 520.085C837.65 520.156 846.946 519.518 855.637 529.664Z" fill="#858585" fill-opacity="0.8"/>
<path opacity="0.42" d="M915.717 535.695C915.717 535.695 915.037 517.744 905.817 524.981C896.597 532.218 895.917 535.695 895.917 535.695C895.917 535.695 897.655 523.917 889.795 526.826C881.936 529.735 880.198 535.695 880.198 535.695H915.717Z" fill="#858585" fill-opacity="0.8"/>
<path opacity="0.42" d="M194.222 566.702C194.222 566.702 190.746 541.868 146.763 533.07C146.763 533.07 156.512 561.593 173.969 568.475C191.502 575.429 196.565 571.03 196.565 571.03L219.161 581.957L221.126 584.866C221.126 584.866 198.53 580.112 199.361 587.42C200.117 594.728 210.924 599.127 226.719 597.282V576.067C226.719 576.067 220.748 574.223 215.685 577.557L202.46 558.897L208.279 573.158L194.222 566.702Z" fill="#858585" fill-opacity="0.8"/>
<path opacity="0.42" d="M226.643 565.495C226.643 565.495 208.581 560.529 202.006 533.141C202.006 533.141 221.731 545.203 226.643 554.356V565.495Z" fill="#858585" fill-opacity="0.8"/>
<path opacity="0.42" d="M225.963 645.885C225.963 645.885 210.622 647.375 193.92 619.562C193.92 619.562 214.778 621.052 225.963 629.424V645.885Z" fill="#858585" fill-opacity="0.8"/>
<path opacity="0.42" d="M166.638 590.826C166.638 590.826 191.124 589.761 218.406 610.196L226.719 607.996V610.196L217.65 613.105C217.65 613.105 207.901 621.477 192.333 613.105C176.689 604.732 166.638 590.826 166.638 590.826Z" fill="#858585" fill-opacity="0.8"/>
<path opacity="0.42" d="M227.55 647.872C227.55 647.872 211.226 642.692 186.741 663.411C186.741 663.411 199.664 674.408 227.55 647.872Z" fill="#858585" fill-opacity="0.8"/>
<path opacity="0.42" d="M226.039 530.87C226.039 530.87 223.318 477.727 276.975 463.181C276.975 463.181 278.789 483.048 238.81 497.026H268.813L235.41 506.746C235.334 506.746 229.666 507.172 226.039 530.87Z" fill="#858585" fill-opacity="0.8"/>
<path opacity="0.42" d="M216.592 486.17C216.592 486.17 227.474 483.828 224.376 505.256C219.455 499.961 216.697 493.197 216.592 486.17Z" fill="#858585" fill-opacity="0.8"/>
<path opacity="0.42" d="M235.258 495.678C235.258 495.678 223.016 481.132 224.754 455.163C224.754 455.163 244.63 465.168 235.258 495.678Z" fill="#858585" fill-opacity="0.8"/>
</g>
</g>
<defs>
<clipPath id="clip0_0_3">
<rect width="1451" height="699" fill="white"/>
</clipPath>
</defs>
</svg>
