<svg width="634" height="439" viewBox="0 0 634 439" fill="none" xmlns="http://www.w3.org/2000/svg">
<g clip-path="url(#clip0_8_156)">
<path d="M57.2999 191.731C45.5624 201.347 64.7692 285.75 64.7692 285.75C64.7692 285.75 69.0374 414.492 78.1072 420.368C87.1771 426.244 107.451 419.833 115.454 418.765C123.456 417.697 116.521 338.101 104.783 308.721C93.0458 279.34 102.116 236.604 102.116 236.604L165.605 248.89C165.605 248.89 127.191 281.477 128.792 288.421C130.392 295.366 171.473 318.87 178.943 319.939C186.412 321.007 200.817 277.203 213.622 247.288C226.426 217.373 126.124 198.142 126.124 198.142L112.253 171.966C112.253 171.966 69.0374 182.116 57.2999 191.731Z" fill="#2F2E41"/>
<path d="M89.1645 422.585C89.1645 422.585 85.293 436.152 89.1645 436.152C93.0361 436.152 100.134 440.029 111.103 438.736C122.073 437.444 118.846 423.877 111.103 421.938C103.36 420 105.296 404.494 105.296 404.494C102.715 399.326 90.455 405.787 90.455 405.787L89.1645 422.585Z" fill="#2F2E41"/>
<path d="M144.129 314.695C144.129 314.695 137.487 327.14 141.271 327.957C145.056 328.775 151.178 334.063 162.172 335.116C173.167 336.169 172.871 322.225 165.71 318.696C158.55 315.166 163.708 300.418 163.708 300.418C162.273 294.82 148.928 298.547 148.928 298.547L144.129 314.695Z" fill="#2F2E41"/>
<path d="M64.5024 76.0777C65.5694 78.2145 60.7678 104.924 60.7678 104.924L65.0359 112.403C65.0359 112.403 89.5779 102.788 85.8433 101.185C82.1086 99.5824 82.6421 79.8171 82.6421 79.8171C82.6421 79.8171 63.4354 73.941 64.5024 76.0777Z" fill="#FFB9B9"/>
<path d="M73.7397 84.311C91.8062 84.311 106.452 69.6467 106.452 51.5574C106.452 33.468 91.8062 18.8037 73.7397 18.8037C55.6733 18.8037 41.0275 33.468 41.0275 51.5574C41.0275 69.6467 55.6733 84.311 73.7397 84.311Z" fill="#2F2E41"/>
<path d="M71.4837 34.4478C78.9595 34.4478 85.0198 28.3798 85.0198 20.8946C85.0198 13.4094 78.9595 7.34137 71.4837 7.34137C64.0079 7.34137 57.9476 13.4094 57.9476 20.8946C57.9476 28.3798 64.0079 34.4478 71.4837 34.4478Z" fill="#2F2E41"/>
<path d="M77.4057 27.0332C77.8742 27.0819 78.3448 27.1064 78.8157 27.1065C80.5933 27.1065 82.3535 26.7559 83.9958 26.0748C85.638 25.3937 87.1303 24.3954 88.3872 23.1368C89.6441 21.8783 90.6412 20.3842 91.3215 18.7399C92.0017 17.0955 92.3518 15.3331 92.3518 13.5532C92.3518 11.7734 92.0017 10.011 91.3215 8.36664C90.6412 6.72229 89.6441 5.22819 88.3872 3.96965C87.1303 2.71112 85.638 1.71279 83.9958 1.03168C82.3535 0.350565 80.5933 -5.30433e-08 78.8157 0C78.3448 0.000121273 77.8742 0.0245787 77.4057 0.0732768C80.7334 0.422372 83.8141 1.99309 86.0533 4.48237C88.2926 6.97165 89.5318 10.2031 89.5318 13.5532C89.5318 16.9034 88.2926 20.1348 86.0533 22.6241C83.8141 25.1134 80.7334 26.6841 77.4057 27.0332V27.0332Z" fill="#2F2E41"/>
<path d="M74.6393 89.9669C87.0149 89.9669 97.0472 79.9218 97.0472 67.5306C97.0472 55.1394 87.0149 45.0944 74.6393 45.0944C62.2638 45.0944 52.2315 55.1394 52.2315 67.5306C52.2315 79.9218 62.2638 89.9669 74.6393 89.9669Z" fill="#FFB9B9"/>
<path d="M42.3613 101.986C35.4255 103.589 23.688 120.683 23.688 120.683L42.3613 139.38C42.3613 139.38 55.6993 189.595 57.2998 191.731C67.7857 205.73 114.92 174.637 114.92 174.637C114.92 174.637 113.053 159.412 114.12 151.934C115.146 144.741 110.118 130.299 110.118 130.299C110.118 130.299 127.725 122.82 123.99 115.341C120.255 107.862 97.314 90.7682 87.7106 96.6443C78.1072 102.52 58.9005 96.6443 58.9005 96.6443C58.9005 96.6443 49.297 100.384 42.3613 101.986Z" fill="#EAC02C"/>
<path d="M178.676 209.627C178.676 209.627 209.087 235.803 216.556 230.461C224.025 225.119 187.746 206.422 187.746 206.422L178.676 209.627Z" fill="#FFB9B9"/>
<path d="M42.0945 200.546C46.3627 205.353 66.6365 193.067 64.0374 187.611C61.4382 182.154 45.2957 193.067 45.2957 193.067C45.2957 193.067 37.8264 195.738 42.0945 200.546Z" fill="#FFB9B9"/>
<path d="M42.3613 128.162L19.9534 169.829C19.9534 169.829 45.5624 191.197 48.7635 191.731C51.9646 192.266 42.3613 206.155 42.3613 206.155C42.3613 206.155 13.5511 185.855 2.34719 175.705C-8.85675 165.556 23.688 120.683 23.688 120.683L33.2914 114.807L42.3613 128.162Z" fill="#EAC02C"/>
<path d="M107.451 126.559L133.593 167.158C133.593 167.158 173.607 212.031 178.943 214.168C184.278 216.304 190.68 206.155 190.68 206.155L142.663 147.927L124.524 115.341L117.588 112.67L107.451 126.559Z" fill="#EAC02C"/>
<path d="M73.7397 54.4266C86.1993 54.4266 96.2998 48.3586 96.2998 40.8734C96.2998 33.3881 86.1993 27.3201 73.7397 27.3201C61.2801 27.3201 51.1796 33.3881 51.1796 40.8734C51.1796 48.3586 61.2801 54.4266 73.7397 54.4266Z" fill="#2F2E41"/>
<path d="M141.228 411.128C141.228 419.964 148.392 427.128 157.228 427.128H441.172C450.009 427.128 457.172 419.964 457.172 411.128V356.297C457.172 347.461 450.009 340.297 441.172 340.297H157.228C148.392 340.297 141.228 347.461 141.228 356.297V411.128Z" fill="#3BC662" fill-opacity="0.34"/>
<path d="M417.292 409.114C416.685 409.114 416.084 409.233 415.523 409.465C414.962 409.697 414.452 410.038 414.022 410.467C413.593 410.897 413.252 411.407 413.019 411.968C412.787 412.53 412.667 413.132 412.667 413.74C412.667 414.348 412.787 414.95 413.019 415.511C413.252 416.073 413.593 416.583 414.022 417.013C414.452 417.442 414.962 417.783 415.523 418.015C416.084 418.247 416.685 418.366 417.292 418.365H435.771C436.996 418.365 438.171 417.878 439.038 417.011C439.904 416.143 440.391 414.967 440.391 413.74C440.391 412.513 439.904 411.337 439.038 410.469C438.171 409.602 436.996 409.114 435.771 409.114H417.292Z" fill="#1A9917"/>
<path d="M440.391 400.142H227.076V401.359H440.391V400.142Z" fill="#E6E6E6"/>
<path d="M182.486 410.654C197.347 410.654 209.393 398.592 209.393 383.713C209.393 368.833 197.347 356.771 182.486 356.771C167.626 356.771 155.579 368.833 155.579 383.713C155.579 398.592 167.626 410.654 182.486 410.654Z" fill="#473EDE"/>
<path d="M227.413 393.347L226.739 392.334L248.905 377.537L264.105 384.843L285.969 370.857L329.462 389.433L364.096 372.397L397.728 386.049L439.988 348.572L440.794 349.483L397.97 387.461L364.144 373.73L329.497 390.771L286.083 372.228L264.19 386.234L249.003 378.935L227.413 393.347Z" fill="#3F3D56"/>
<path d="M231.026 409.751C230.507 409.75 229.993 409.852 229.513 410.05C229.033 410.249 228.597 410.54 228.229 410.907C227.862 411.275 227.571 411.711 227.372 412.191C227.173 412.671 227.071 413.186 227.071 413.706C227.071 414.226 227.173 414.74 227.372 415.221C227.571 415.701 227.862 416.137 228.229 416.505C228.597 416.872 229.033 417.163 229.513 417.362C229.993 417.56 230.507 417.662 231.026 417.661H272.352C273.399 417.66 274.402 417.243 275.142 416.501C275.882 415.759 276.297 414.754 276.297 413.706C276.297 412.658 275.882 411.652 275.142 410.911C274.402 410.169 273.399 409.752 272.352 409.751H231.026Z" fill="#BF0000"/>
<path d="M192.763 371.66H196.967L188.219 380.328C186.691 381.837 184.631 382.682 182.485 382.682C180.339 382.682 178.279 381.837 176.751 380.328L168.004 371.66H172.208L178.854 378.245C179.822 379.2 181.126 379.736 182.486 379.736C183.845 379.736 185.149 379.2 186.117 378.245L192.763 371.66ZM172.155 395.765H167.95L176.752 387.043C178.281 385.535 180.34 384.689 182.486 384.689C184.632 384.689 186.692 385.535 188.22 387.043L197.022 395.765H192.818L186.117 389.126C185.149 388.171 183.845 387.635 182.486 387.635C181.126 387.635 179.822 388.171 178.854 389.126L172.155 395.765Z" fill="white"/>
<path d="M183.464 106.062C183.464 114.899 190.627 122.062 199.464 122.062H483.407C492.244 122.062 499.407 114.899 499.407 106.062V51.2319C499.407 42.3954 492.244 35.2319 483.407 35.2319H199.464C190.627 35.2319 183.464 42.3954 183.464 51.2319V106.062Z" fill="#E3C867" fill-opacity="0.65"/>
<path d="M459.528 104.049C458.302 104.049 457.127 104.536 456.261 105.404C455.395 106.271 454.908 107.448 454.908 108.674C454.908 109.901 455.395 111.078 456.261 111.945C457.127 112.813 458.302 113.3 459.528 113.3H478.006C479.231 113.3 480.407 112.813 481.273 111.945C482.139 111.078 482.626 109.901 482.626 108.674C482.626 107.448 482.139 106.271 481.273 105.404C480.407 104.536 479.231 104.049 478.006 104.049H459.528Z" fill="#1A9917"/>
<path d="M482.017 95.0767H269.919C269.583 95.0767 269.311 95.3492 269.311 95.6852C269.311 96.0213 269.583 96.2937 269.919 96.2937H482.017C482.354 96.2937 482.626 96.0213 482.626 95.6852C482.626 95.3492 482.354 95.0767 482.017 95.0767Z" fill="#E6E6E6"/>
<path d="M224.721 105.589C239.582 105.589 251.629 93.5264 251.629 78.6471C251.629 63.7678 239.582 51.7057 224.721 51.7057C209.861 51.7057 197.814 63.7678 197.814 78.6471C197.814 93.5264 209.861 105.589 224.721 105.589Z" fill="#473EDE"/>
<path d="M269.648 88.2807L268.974 87.268L291.14 72.4717L306.341 79.7774L328.204 65.7913L328.5 65.9169L371.697 84.3673L406.331 67.3321L439.963 80.9841L482.223 43.5063L483.029 44.4174L440.205 82.3954L406.379 68.6645L371.732 85.7056L328.318 67.1628L306.425 81.1678L291.238 73.8686L269.648 88.2807Z" fill="#3F3D56"/>
<path d="M273.261 104.685C272.214 104.687 271.211 105.104 270.471 105.845C269.731 106.587 269.316 107.592 269.316 108.64C269.316 109.689 269.731 110.694 270.471 111.435C271.211 112.177 272.214 112.594 273.261 112.596H314.587C315.635 112.596 316.64 112.179 317.38 111.437C318.121 110.696 318.537 109.689 318.537 108.64C318.537 107.591 318.121 106.585 317.38 105.844C316.64 105.102 315.635 104.685 314.587 104.685H273.261Z" fill="#BF0000"/>
<path d="M235.547 75.5025C236.05 72.1311 233.487 70.3187 229.981 69.1097L231.118 64.5427L228.341 63.8498L227.234 68.2965C226.505 68.1144 225.755 67.9426 225.01 67.7723L226.125 63.2964L223.35 62.6036L222.213 67.169C221.608 67.0312 221.015 66.8951 220.44 66.7517L220.443 66.7375L216.614 65.7802L215.875 68.7494C215.875 68.7494 217.935 69.2221 217.892 69.2514C218.276 69.2975 218.627 69.4927 218.869 69.795C219.111 70.0974 219.224 70.4828 219.185 70.8682L217.89 76.071C217.988 76.0955 218.085 76.1265 218.179 76.1637L217.886 76.0908L216.07 83.3792C216.03 83.5064 215.965 83.6245 215.88 83.7266C215.794 83.8287 215.689 83.9129 215.571 83.9742C215.452 84.0356 215.323 84.073 215.191 84.0842C215.058 84.0954 214.924 84.0802 214.797 84.0395C214.825 84.0799 212.779 83.5352 212.779 83.5352L211.401 86.7182L215.015 87.62C215.687 87.7887 216.346 87.9652 216.993 88.1315L215.844 92.7516L218.618 93.4444L219.756 88.8742C220.513 89.0801 221.249 89.2701 221.968 89.449L220.834 93.9978L223.611 94.6906L224.76 90.0801C229.494 90.9772 233.055 90.6153 234.552 86.3286C235.759 82.8764 234.493 80.8851 232.002 79.5858C233.816 79.1653 235.182 77.9705 235.547 75.5025L235.547 75.5025ZM229.203 84.4093C228.344 87.8615 222.54 85.9961 220.657 85.5273L222.182 79.4076C224.064 79.8779 230.098 80.8091 229.204 84.4093H229.203ZM230.061 75.4527C229.278 78.5929 224.446 76.9974 222.878 76.6063L224.261 71.0559C225.829 71.447 230.877 72.177 230.061 75.4527V75.4527Z" fill="white"/>
<path d="M233.989 254.828C233.989 263.665 241.152 270.828 249.989 270.828H533.933C542.769 270.828 549.933 263.665 549.933 254.828V199.998C549.933 191.161 542.769 183.998 533.933 183.998H249.989C241.152 183.998 233.989 191.161 233.989 199.998V254.828Z" fill="#E7AAAA" fill-opacity="0.94"/>
<path d="M510.053 252.815C508.828 252.815 507.653 253.302 506.786 254.169C505.92 255.037 505.433 256.214 505.433 257.44C505.433 258.667 505.92 259.844 506.786 260.711C507.653 261.578 508.828 262.066 510.053 262.066H528.532C529.757 262.066 530.932 261.578 531.798 260.711C532.665 259.844 533.151 258.667 533.151 257.44C533.151 256.214 532.665 255.037 531.798 254.169C530.932 253.302 529.757 252.815 528.532 252.815H510.053V252.815Z" fill="#1A9917"/>
<path d="M533.151 243.843H319.836V245.06H533.151V243.843Z" fill="#E6E6E6"/>
<path d="M275.247 254.354C290.107 254.354 302.154 242.292 302.154 227.413C302.154 212.534 290.107 200.471 275.247 200.471C260.386 200.471 248.339 212.534 248.339 227.413C248.339 242.292 260.386 254.354 275.247 254.354Z" fill="#473EDE"/>
<path d="M320.173 237.047L319.499 236.034L341.665 221.238L356.866 228.543L378.729 214.557L379.025 214.683L422.222 233.133L456.857 216.098L490.489 229.75L532.749 192.272L533.555 193.184L490.731 231.161L456.905 217.431L422.257 234.472L378.844 215.929L356.95 229.934L341.764 222.635L320.173 237.047Z" fill="#3F3D56"/>
<path d="M323.787 253.451C322.739 253.451 321.734 253.868 320.993 254.609C320.252 255.351 319.836 256.357 319.836 257.406C319.836 258.455 320.252 259.461 320.993 260.203C321.734 260.945 322.739 261.362 323.787 261.362H365.113C366.16 261.362 367.165 260.945 367.906 260.203C368.647 259.461 369.063 258.455 369.063 257.406C369.063 256.357 368.647 255.351 367.906 254.609C367.165 253.868 366.16 253.451 365.113 253.451H323.787Z" fill="#BF0000"/>
<path d="M275.244 245.169L286.136 229.809L275.244 236.249L264.358 229.809L275.243 245.169H275.244Z" fill="white"/>
<path d="M275.243 234.185H275.244L286.13 227.742L275.244 209.657H275.243L264.358 227.742L275.243 234.185Z" fill="white"/>
</g>
<defs>
<clipPath id="clip0_8_156">
<rect width="634" height="439" fill="white"/>
</clipPath>
</defs>
</svg>
