<svg width="532" height="614" viewBox="0 0 532 614" fill="none" xmlns="http://www.w3.org/2000/svg">
<g clip-path="url(#clip0_7_80)">
<path d="M532 234.352C532 236.096 531.979 237.838 531.938 239.576C531.92 240.713 531.885 241.849 531.841 242.986C531.832 243.312 531.823 243.629 531.806 243.955C531.779 244.58 531.753 245.197 531.726 245.805C531.532 249.866 531.231 253.899 530.825 257.901C530.807 258.095 530.789 258.289 530.772 258.474C530.728 258.87 530.692 259.267 530.639 259.663C530.516 260.853 530.383 262.042 530.233 263.214C530.136 264.007 530.038 264.791 529.932 265.584C529.879 265.963 529.826 266.342 529.782 266.712C529.72 267.126 529.667 267.531 529.605 267.936C529.579 268.112 529.552 268.289 529.526 268.474C529.438 269.073 529.349 269.681 529.252 270.28C529.137 271.064 529.013 271.839 528.881 272.623C528.757 273.399 528.625 274.174 528.483 274.949C528.351 275.724 528.209 276.5 528.068 277.275C527.927 278.059 527.776 278.834 527.626 279.61C526.866 283.451 526.018 287.26 525.082 291.036C524.711 292.508 524.331 293.976 523.942 295.442C523.297 297.82 522.616 300.187 521.901 302.543C521.698 303.195 521.494 303.847 521.291 304.49C521.061 305.23 520.823 305.97 520.584 306.701C520.346 307.441 520.107 308.172 519.86 308.904C519.612 309.635 519.365 310.366 519.109 311.097C518.861 311.82 518.605 312.551 518.34 313.273C518.084 314.005 517.819 314.727 517.554 315.45C517.28 316.172 517.015 316.894 516.741 317.608C516.193 319.053 515.63 320.483 515.053 321.899C514.77 322.612 514.479 323.326 514.178 324.031C513.003 326.868 511.772 329.672 510.485 332.444C510.202 333.061 509.92 333.678 509.628 334.286C509.434 334.691 509.248 335.088 509.054 335.493C508.727 336.162 508.409 336.823 508.082 337.484C507.755 338.153 507.419 338.832 507.075 339.51C506.394 340.849 505.702 342.186 504.998 343.519C504.3 344.849 503.585 346.18 502.851 347.492C502.118 348.805 501.376 350.118 500.625 351.413C500.245 352.065 499.865 352.717 499.485 353.36C497.956 355.941 496.378 358.493 494.749 361.016C493.132 363.527 491.462 366.008 489.739 368.461C488.882 369.685 488.007 370.91 487.124 372.117C486.77 372.601 486.417 373.077 486.063 373.553C485.631 374.152 485.18 374.742 484.729 375.333C465.58 400.729 441.449 421.974 413.804 437.775C386.158 453.576 355.577 463.603 323.922 467.244C292.267 470.885 260.2 468.065 229.672 458.956C199.145 449.846 170.796 434.638 146.351 414.256C143.771 412.106 141.238 409.904 138.752 407.648C122.801 393.165 108.915 376.571 97.4807 358.329C96.0582 356.047 94.6622 353.739 93.3191 351.413C72.702 315.829 61.8783 275.447 61.9438 234.352C61.9438 104.921 167.167 -1.80186e-05 296.972 -1.80186e-05C336.03 -0.0236223 374.477 9.66734 408.832 28.1954C443.188 46.7234 472.365 73.5033 493.724 106.11C494.113 106.7 494.501 107.3 494.89 107.899C516.126 140.853 528.686 178.615 531.408 217.691C531.806 223.189 532.003 228.742 532 234.352Z" fill="#FFFFF4"/>
<path d="M494.89 107.899H169.341C169.107 107.893 168.884 107.796 168.721 107.629C168.557 107.462 168.466 107.238 168.466 107.004C168.466 106.771 168.557 106.547 168.721 106.38C168.884 106.213 169.107 106.116 169.341 106.11H493.724C494.113 106.7 494.502 107.3 494.89 107.899Z" fill="#06AB17"/>
<path d="M189.092 95.3786C194.423 95.3786 198.745 90.9731 198.745 85.5386C198.745 80.1042 194.423 75.6987 189.092 75.6987C183.761 75.6987 179.439 80.1042 179.439 85.5386C179.439 90.9731 183.761 95.3786 189.092 95.3786Z" fill="#06AB17"/>
<path d="M222.44 95.3786C227.771 95.3786 232.093 90.9731 232.093 85.5386C232.093 80.1042 227.771 75.6987 222.44 75.6987C217.108 75.6987 212.786 80.1042 212.786 85.5386C212.786 90.9731 217.108 95.3786 222.44 95.3786Z" fill="#06AB17"/>
<path d="M255.787 95.3786C261.118 95.3786 265.44 90.9731 265.44 85.5386C265.44 80.1042 261.118 75.6987 255.787 75.6987C250.456 75.6987 246.134 80.1042 246.134 85.5386C246.134 90.9731 250.456 95.3786 255.787 95.3786Z" fill="#06AB17"/>
<path d="M531.408 217.691C522.917 221.542 515.309 227.762 508.665 236.316C500.987 246.21 492.761 253.179 484.358 257.901C483.961 258.122 483.572 258.333 483.174 258.544C475.642 262.592 467.381 265.116 458.867 265.971C456.296 266.23 453.712 266.353 451.127 266.341C450.049 266.333 448.972 266.306 447.902 266.253C445.367 266.13 442.857 265.883 440.392 265.531C426.237 263.522 413.435 258.095 403.954 252.994C390.964 245.85 376.864 240.931 362.241 238.44C359.625 238.008 357.016 237.67 354.412 237.426C353.334 237.321 352.265 237.241 351.196 237.171C348.572 236.995 345.951 236.913 343.333 236.924C341.99 236.933 340.655 236.959 339.312 237.012C316.746 237.893 287.315 244.307 260.922 266.712C260.569 267.011 260.224 267.311 259.871 267.61C259.544 267.892 259.217 268.183 258.89 268.474C254.713 272.176 250.776 276.14 247.104 280.341C242.893 285.152 238.997 290.229 235.44 295.539C231.216 301.755 226.283 307.461 220.738 312.542C212.537 320.089 205.969 329.227 201.438 339.396C196.908 349.565 194.509 360.55 194.39 371.676V372.117C194.381 372.593 194.381 373.077 194.381 373.553H486.072C486.426 373.077 486.779 372.601 487.124 372.117C488.007 370.91 488.882 369.685 489.739 368.461C491.462 366.011 493.132 363.53 494.749 361.016C496.384 358.496 497.962 355.944 499.485 353.36C499.865 352.717 500.245 352.065 500.625 351.413C501.376 350.118 502.118 348.805 502.851 347.492C503.585 346.18 504.3 344.849 504.998 343.519C505.705 342.189 506.397 340.852 507.075 339.51C507.419 338.832 507.755 338.154 508.082 337.484C508.409 336.823 508.727 336.162 509.054 335.493C509.248 335.088 509.434 334.691 509.628 334.286C509.92 333.678 510.202 333.061 510.485 332.445C511.775 329.669 513.006 326.865 514.179 324.031C514.479 323.326 514.77 322.612 515.053 321.899C515.628 320.48 516.19 319.05 516.741 317.608C517.015 316.895 517.28 316.172 517.554 315.45C517.819 314.727 518.084 314.005 518.34 313.274C518.605 312.551 518.861 311.82 519.109 311.097C519.365 310.366 519.612 309.635 519.86 308.904C520.107 308.172 520.346 307.441 520.584 306.701C520.823 305.97 521.061 305.23 521.291 304.49C521.494 303.847 521.698 303.195 521.901 302.543C522.617 300.19 523.297 297.823 523.942 295.442C524.331 293.979 524.711 292.511 525.082 291.037C526.018 287.266 526.866 283.457 527.626 279.61C527.777 278.834 527.927 278.059 528.068 277.275C528.209 276.5 528.351 275.724 528.483 274.949C528.625 274.174 528.757 273.399 528.881 272.623C529.014 271.839 529.137 271.064 529.252 270.28C529.349 269.681 529.438 269.073 529.526 268.474C529.553 268.289 529.579 268.112 529.606 267.936C529.667 267.522 529.72 267.117 529.773 266.712C529.826 266.333 529.879 265.954 529.932 265.584C530.039 264.791 530.136 264.007 530.233 263.214C530.383 262.042 530.516 260.853 530.639 259.663H530.648C530.683 259.267 530.728 258.871 530.772 258.474C530.789 258.289 530.807 258.095 530.825 257.901C531.231 253.902 531.532 249.869 531.726 245.805C531.753 245.197 531.779 244.58 531.806 243.955C531.823 243.629 531.832 243.312 531.841 242.986C531.885 241.849 531.92 240.713 531.938 239.576C531.982 237.841 532.003 236.099 532 234.352C532 228.748 531.803 223.195 531.408 217.691Z" fill="#06AB17" fill-opacity="0.94"/>
<path d="M257.906 276.777H254.682V370.993H257.906V276.777Z" fill="#3F3D56"/>
<path d="M354.417 232.775H351.193V370.993H354.417V232.775Z" fill="#3F3D56"/>
<path d="M451.126 261.705H447.902V370.993H451.126V261.705Z" fill="#3F3D56"/>
<path d="M353.004 244.824C358.45 244.824 362.865 240.422 362.865 234.991C362.865 229.56 358.45 225.158 353.004 225.158C347.557 225.158 343.142 229.56 343.142 234.991C343.142 240.422 347.557 244.824 353.004 244.824Z" fill="#3F3D56"/>
<path d="M449.713 272.146C455.159 272.146 459.575 267.744 459.575 262.313C459.575 256.882 455.159 252.48 449.713 252.48C444.266 252.48 439.851 256.882 439.851 262.313C439.851 267.744 444.266 272.146 449.713 272.146Z" fill="#3F3D56"/>
<path d="M254.527 278.682C259.974 278.682 264.389 274.279 264.389 268.848C264.389 263.418 259.974 259.015 254.527 259.015C249.081 259.015 244.666 263.418 244.666 268.848C244.666 274.279 249.081 278.682 254.527 278.682Z" fill="#3F3D56"/>
<path d="M487.124 372.117C486.77 372.601 486.417 373.077 486.063 373.553C485.631 374.152 485.18 374.742 484.729 375.333H194.063V372.117H487.124Z" fill="#3F3D56"/>
<path d="M112.314 603.61H121.654L126.098 567.685L112.313 567.686L112.314 603.61Z" fill="#FFB8B8"/>
<path d="M136.614 603.993C135.529 602.901 134.238 602.036 132.814 601.447C131.39 600.865 129.865 600.566 128.326 600.566L122.821 596.407L122.53 596.522L112.563 600.566H109.93V612.635H140.051V612.257C140.055 610.721 139.754 609.199 139.164 607.781C138.574 606.362 137.707 605.075 136.614 603.993V603.993Z" fill="#2F2E41"/>
<path d="M155.709 603.61H165.049L169.492 567.685L155.707 567.686L155.709 603.61Z" fill="#FFB8B8"/>
<path d="M180.014 603.993C178.928 602.899 177.634 602.033 176.206 601.447C174.782 600.863 173.257 600.564 171.718 600.566L166.222 596.407L165.922 596.53L155.955 600.566H153.322L153.331 612.636H183.443V612.257C183.447 610.722 183.146 609.201 182.558 607.783C181.969 606.364 181.105 605.076 180.014 603.993V603.993Z" fill="#2F2E41"/>
<path d="M163.175 407.015L89.7872 408.924L91.0635 444.558C91.0635 444.558 89.7872 454.103 92.3398 456.648C94.8924 459.193 96.1688 459.193 94.8925 463.648C93.6162 468.102 100.359 475.377 99.5404 476.193C98.7214 477.01 96.8069 481.464 96.8069 481.464L103.188 517.734C103.188 517.734 107.656 580.73 108.932 582.002C110.208 583.275 111.484 582.002 110.208 585.184C108.932 588.366 107.656 587.093 108.932 588.366C110.062 589.581 111.127 590.855 112.123 592.183H127.551C127.551 592.183 128.715 585.82 128.715 585.184C128.715 584.548 129.991 580.73 129.991 580.093C129.991 579.457 128.863 578.332 128.863 578.332C128.473 577.039 128.21 575.711 128.076 574.367C128.076 573.094 124.248 524.098 124.248 524.098L131.905 460.466L150.412 522.825C150.412 522.825 150.412 577.548 151.688 578.821C152.964 580.093 152.964 579.457 152.326 582.002C151.688 584.548 149.135 583.911 151.05 585.82C152.964 587.729 153.603 584.548 152.964 587.729L152.326 590.911L171.471 591.184C171.471 591.184 174.024 585.82 172.747 583.911C171.471 582.002 171.547 582.523 173.105 579.399C174.662 576.276 175.3 575.639 174.662 575.003C174.024 574.367 174.023 570.982 174.023 570.982L170.833 510.099C170.833 510.099 170.195 445.831 170.195 443.922C170.146 442.939 170.328 441.959 170.725 441.059V438.468L168.28 429.286L163.175 407.015Z" fill="#2F2E41"/>
<path d="M246.227 268.233C245.874 269.211 245.311 270.099 244.577 270.836C243.843 271.573 242.955 272.14 241.977 272.498C240.999 272.856 239.954 272.996 238.916 272.908C237.878 272.819 236.872 272.505 235.969 271.988L204.113 298.599L202.382 285.591L233.54 261.808C234.513 260.353 235.987 259.304 237.684 258.861C239.381 258.417 241.182 258.61 242.745 259.402C244.309 260.194 245.527 261.53 246.169 263.158C246.811 264.785 246.831 266.591 246.227 268.233H246.227Z" fill="#FFB8B8"/>
<path d="M105.76 279.216C116.685 279.216 125.542 270.384 125.542 259.49C125.542 248.596 116.685 239.764 105.76 239.764C94.8338 239.764 85.9768 248.596 85.9768 259.49C85.9768 270.384 94.8338 279.216 105.76 279.216Z" fill="#FFB8B8"/>
<path d="M121.797 239.859C119.956 235.482 112.063 232.883 99.5731 233.274C87.0836 233.666 84.8964 248.517 84.8964 248.517C78.0171 254.91 89.1235 274.872 91.0504 272.12C92.9773 269.368 96.2124 271.969 96.2124 271.969L93.1294 254.677C96.3851 255.926 99.8867 256.765 102.949 255.31L97.8751 252.605L110.491 254.17L105.288 250.179C105.414 250.137 105.54 250.094 105.666 250.052C107.753 250.949 109.987 251.455 112.258 251.544C114.91 251.524 117.729 250.285 118.841 247.883C119.136 247.224 119.296 246.512 119.311 245.79C122.969 246.974 124.889 251.246 124.889 251.246C124.195 247.367 123.16 243.557 121.797 239.859V239.859Z" fill="#2F2E41"/>
<path d="M121.595 280.098C117.177 280.098 114.332 280.706 107.458 281.86C94.7698 283.992 102.368 296.013 102.368 296.013C102.368 296.013 102.943 295.723 101.388 296.013C99.8326 296.304 94.5312 300.877 94.5312 300.877L85.0506 309.273C70.7633 320.453 73.9618 337.897 73.9618 337.897L94.7963 358.804L85.6691 400.749C85.6691 400.749 89.5479 406.978 87.5422 409.771C85.5364 412.564 105.213 411.762 105.213 411.762C118.794 417.797 166.639 412.696 166.639 412.696C165.976 410.969 159.57 397.586 159.57 397.586C162.354 392.794 159.703 385.869 159.703 385.869C159.703 385.869 156.937 353.112 155.17 348.584C153.403 344.056 159.694 319.519 163.829 319.783C167.964 320.048 194.674 306.462 194.674 306.462C194.674 306.462 194.003 305.396 202.821 301.802C207.886 299.817 212.529 296.897 216.507 293.194L220.13 285.979C218.389 286.648 212.514 275.6 212.514 275.6L209.951 276.574L208.467 276.146C208.467 276.146 196.883 279.433 194.515 281.829C192.147 284.225 191.352 283.556 189.214 284.093C187.076 284.631 186.811 286.128 186.139 285.961C185.468 285.794 184.275 287.82 183.338 287.556C182.402 287.291 180.396 288.357 179.062 288.622C177.728 288.886 168.247 292.886 168.247 292.886C162.38 289.926 146.476 291.124 146.476 291.124C146.476 291.124 141.272 288.067 139.796 291.124C139.399 291.992 138.762 292.73 137.959 293.25C137.156 293.769 136.221 294.05 135.263 294.058L128.919 291.353C128.551 292.695 121.631 278.707 121.595 280.098Z" fill="#3F3D56"/>
<path d="M4.65168e-06 612.952C-0.000407156 613.089 0.0265277 613.226 0.0792256 613.353C0.131923 613.481 0.209349 613.596 0.307073 613.694C0.404798 613.791 0.52087 613.868 0.64863 613.921C0.776389 613.974 0.913304 614 1.0515 614H251.356C251.635 614 251.903 613.89 252.1 613.693C252.297 613.496 252.408 613.23 252.408 612.952C252.408 612.674 252.297 612.407 252.1 612.21C251.903 612.014 251.635 611.903 251.356 611.903H1.0515C0.913306 611.903 0.776387 611.93 0.64863 611.982C0.520872 612.035 0.404797 612.112 0.307073 612.209C0.20935 612.307 0.131925 612.422 0.0792256 612.55C0.026526 612.677 -0.000402466 612.814 4.65168e-06 612.952Z" fill="#CCCCCC"/>
<path d="M261.088 266.711H255.787V268.473H261.088V266.711Z" fill="#3F3D56"/>
<path d="M271.79 266.711V268.474H282.499V266.711H271.79ZM293.208 266.711V268.474H303.908V266.711H293.208ZM314.617 266.711V268.474H325.325V266.711H314.617ZM336.025 266.711V268.474H346.734V266.711H336.025ZM357.443 266.711V268.474H368.143V266.711H357.443ZM378.852 266.711V268.474H389.561V266.711H378.852ZM400.261 266.711V268.474H410.969V266.711H400.261ZM421.678 266.711V268.474H432.378V266.711H421.678ZM443.087 266.711V268.474H453.796V266.711H443.087ZM464.496 266.711V268.474H475.205V266.711H464.496ZM485.905 266.711V268.474H496.613V266.711H485.905ZM507.322 266.711V268.474H518.022V266.711H507.322ZM528.731 266.711V268.474H529.526C529.553 268.288 529.579 268.112 529.606 267.936C529.667 267.531 529.72 267.126 529.782 266.711H528.731Z" fill="#3F3D56"/>
<path d="M352.979 231.47H347.678V233.232H352.979V231.47Z" fill="#3F3D56"/>
<path d="M363.681 231.471V233.233H374.39V231.471H363.681ZM385.099 231.471V233.233H395.799V231.471H385.099ZM406.507 231.471V233.233H417.216V231.471H406.507ZM427.916 231.471V233.233H438.625V231.471H427.916ZM449.334 231.471V233.233H460.034V231.471H449.334ZM470.742 231.471V233.233H481.451V231.471H470.742ZM492.151 231.471V233.233H502.86V231.471H492.151ZM513.569 231.471V233.233H524.269V231.471H513.569Z" fill="#3F3D56"/>
<path d="M451.055 257.901H445.753V259.663H451.055V257.901Z" fill="#3F3D56"/>
<path d="M461.757 257.901V259.663H472.465V257.901H461.757ZM483.174 257.901V259.663H493.874V257.901H483.174ZM504.583 257.901V259.663H515.292V257.901H504.583ZM525.992 257.901V259.663H530.648C530.683 259.267 530.728 258.87 530.772 258.474C530.789 258.289 530.807 258.095 530.825 257.901H525.992Z" fill="#3F3D56"/>
<path d="M135.28 441.664V384.918C135.281 383.769 135.739 382.668 136.554 381.856C137.368 381.044 138.472 380.587 139.624 380.586H182.604C183.756 380.587 184.86 381.044 185.674 381.856C186.489 382.668 186.947 383.769 186.948 384.918V441.664C186.947 442.812 186.489 443.913 185.674 444.726C184.86 445.538 183.756 445.995 182.604 445.996H139.624C138.472 445.995 137.368 445.538 136.554 444.726C135.739 443.913 135.281 442.812 135.28 441.664V441.664Z" fill="#E6E6E6"/>
<path d="M138.576 424.524V388.042C138.578 386.967 139.007 385.936 139.769 385.175C140.532 384.414 141.566 383.987 142.645 383.985H179.583C180.661 383.987 181.696 384.414 182.458 385.175C183.221 385.936 183.65 386.967 183.652 388.042V438.539C183.65 439.614 183.221 440.646 182.458 441.406C181.696 442.167 180.661 442.595 179.583 442.596H156.701C151.896 442.591 147.289 440.685 143.891 437.297C140.493 433.909 138.582 429.315 138.576 424.524Z" fill="white"/>
<path d="M144.557 398.222C144.558 397.17 144.977 396.163 145.723 395.419C146.468 394.676 147.479 394.258 148.533 394.257H174.156C175.211 394.257 176.222 394.675 176.968 395.418C177.714 396.162 178.132 397.17 178.132 398.222C178.132 399.273 177.714 400.281 176.968 401.025C176.222 401.768 175.211 402.186 174.156 402.186H148.533C147.479 402.185 146.468 401.767 145.723 401.024C144.977 400.28 144.558 399.273 144.557 398.222V398.222Z" fill="#E6E6E6"/>
<path d="M144.557 410.556C144.558 409.505 144.977 408.497 145.723 407.754C146.468 407.01 147.479 406.592 148.533 406.591H174.156C175.211 406.591 176.222 407.009 176.968 407.752C177.714 408.496 178.132 409.504 178.132 410.556C178.132 411.607 177.714 412.616 176.968 413.359C176.222 414.103 175.211 414.52 174.156 414.52H148.533C147.479 414.519 146.468 414.101 145.723 413.358C144.977 412.615 144.558 411.607 144.557 410.556V410.556Z" fill="#E6E6E6"/>
<path d="M144.557 422.89C144.558 421.839 144.977 420.831 145.723 420.088C146.468 419.345 147.479 418.927 148.533 418.926H174.156C175.211 418.926 176.222 419.343 176.968 420.087C177.714 420.83 178.132 421.839 178.132 422.89C178.132 423.942 177.714 424.95 176.968 425.693C176.222 426.437 175.211 426.855 174.156 426.855H148.533C147.479 426.854 146.468 426.435 145.723 425.692C144.977 424.949 144.558 423.941 144.557 422.89V422.89Z" fill="#E6E6E6"/>
<path d="M136.295 421.841C135.328 421.858 134.37 421.665 133.487 421.273C132.603 420.882 131.817 420.302 131.183 419.575C130.549 418.847 130.082 417.99 129.816 417.063C129.55 416.137 129.491 415.163 129.643 414.212L92.9488 394.178L103.688 388.386L137.693 408.75C139.279 409.111 140.678 410.04 141.624 411.36C142.57 412.681 142.997 414.301 142.825 415.915C142.653 417.528 141.893 419.023 140.689 420.115C139.486 421.207 137.922 421.821 136.295 421.841V421.841Z" fill="#FFB8B8"/>
<path d="M114.958 407.032L101.945 404.727L97.2864 400.865L94.1528 399.273L83.3533 391.715L83.3211 391.62L66.161 341.04C65.3731 336.887 66.2073 332.59 68.4929 329.03C70.7785 325.47 74.3426 322.915 78.4554 321.89C80.7297 321.326 83.0981 321.248 85.4045 321.662C87.711 322.077 89.9033 322.973 91.8372 324.293C93.7711 325.613 95.4026 327.327 96.6245 329.321C97.8464 331.315 98.6308 333.545 98.9262 335.863L104.449 379.211L113.603 388.638L117.608 389.411L118.53 393.712L122.026 399.103L114.958 407.032Z" fill="#3F3D56"/>
</g>
<defs>
<clipPath id="clip0_7_80">
<rect width="532" height="614" fill="white"/>
</clipPath>
</defs>
</svg>
