<svg width="663" height="398" viewBox="0 0 663 398" fill="none" xmlns="http://www.w3.org/2000/svg">
<path d="M624.72 354.55H429.224C428.993 354.55 428.772 354.459 428.609 354.296C428.446 354.133 428.355 353.912 428.355 353.681C428.355 353.451 428.446 353.23 428.609 353.067C428.772 352.904 428.993 352.812 429.224 352.812H624.72C624.951 352.812 625.172 352.904 625.335 353.067C625.497 353.23 625.589 353.451 625.589 353.681C625.589 353.912 625.497 354.133 625.335 354.296C625.172 354.459 624.951 354.55 624.72 354.55Z" fill="#CCCCCC"/>
<path d="M528.154 88.397C539.94 88.397 549.494 78.8412 549.494 67.0536C549.494 55.2659 539.94 45.7101 528.154 45.7101C516.368 45.7101 506.813 55.2659 506.813 67.0536C506.813 78.8412 516.368 88.397 528.154 88.397Z" fill="#FFB8B8"/>
<path d="M530.367 320.502L520.282 323.928L502.267 286.649L517.154 281.592L530.367 320.502Z" fill="#FFB8B8"/>
<path d="M512.098 323.494L531.55 316.886L535.71 329.135L504.011 339.903C503.464 338.295 503.24 336.594 503.351 334.899C503.462 333.204 503.905 331.547 504.656 330.023C505.407 328.499 506.451 327.138 507.728 326.018C509.005 324.898 510.49 324.04 512.098 323.494V323.494Z" fill="#2F2E41"/>
<path d="M553.157 341.56L542.519 342.094L535.393 301.308L551.095 300.518L553.157 341.56Z" fill="#FFB8B8"/>
<path d="M534.767 339.436L555.284 338.405L555.934 351.325L522.497 353.006C522.412 351.309 522.662 349.612 523.232 348.012C523.803 346.412 524.683 344.94 525.822 343.68C526.961 342.42 528.338 341.396 529.872 340.668C531.407 339.94 533.07 339.522 534.767 339.436V339.436Z" fill="#2F2E41"/>
<path d="M489.847 206.044C490.801 205.195 491.557 204.146 492.062 202.973C492.567 201.8 492.808 200.53 492.77 199.253C492.731 197.976 492.413 196.723 491.838 195.582C491.262 194.442 490.444 193.441 489.44 192.651L499.583 163.302L483.951 167.297L476.716 194.555C475.5 196.33 474.978 198.488 475.248 200.622C475.517 202.756 476.56 204.717 478.179 206.133C479.797 207.549 481.879 208.322 484.03 208.306C486.18 208.29 488.25 207.485 489.847 206.044Z" fill="#FFB8B8"/>
<path d="M552.163 329.263C552.025 329.262 551.888 329.255 551.751 329.241L537.31 327.711C536.423 327.622 535.593 327.23 534.961 326.601C534.328 325.972 533.931 325.145 533.836 324.258L522.676 224.75L514.6 251.98L529.656 305.495C529.81 306.04 529.843 306.612 529.754 307.171C529.664 307.73 529.455 308.263 529.139 308.733C528.824 309.203 528.41 309.599 527.927 309.894C527.443 310.188 526.901 310.375 526.339 310.439L511.701 312.122C510.768 312.225 509.83 311.991 509.055 311.463C508.28 310.935 507.72 310.146 507.475 309.241L491.48 249.017C491.348 248.522 491.316 248.006 491.383 247.498L498.572 193.448L552.194 197.748L556.071 325.232C556.087 325.756 555.998 326.277 555.809 326.765C555.62 327.253 555.334 327.699 554.97 328.075C554.605 328.45 554.169 328.749 553.687 328.953C553.205 329.157 552.687 329.263 552.163 329.263V329.263Z" fill="#2F2E41"/>
<path d="M533.627 206.99C515.663 206.99 495.324 200.048 494.092 199.622L493.736 199.498L514.002 95.4934L514.375 95.5087C522.406 95.8346 544.324 96.0017 544.545 96.0034L544.938 96.0064L553.386 187.789L554.896 201.213L554.711 201.363C549.543 205.542 541.833 206.99 533.627 206.99Z" fill="#6C63FF"/>
<path d="M501.173 198.002L488.496 192.896L494.957 114.735C495.113 112.808 495.699 110.94 496.673 109.27C497.646 107.6 498.982 106.17 500.583 105.086L507.253 100.546C507.064 99.9038 507.03 99.2263 507.154 98.5688C507.278 97.9112 507.556 97.2925 507.966 96.7632C508.375 96.234 508.904 95.8095 509.509 95.5244C510.114 95.2394 510.779 95.102 511.447 95.1235L513.358 95.185C513.721 94.9401 514.149 94.8107 514.587 94.8138C515.025 94.817 515.452 94.9524 515.812 95.2025C516.171 95.4525 516.447 95.8054 516.602 96.2149C516.758 96.6244 516.786 97.0713 516.683 97.497L516.263 105.778L501.173 198.002Z" fill="#2F2E41"/>
<path d="M494.776 183.99L478.225 183.293L483.587 148.8L488.03 116.345C488.117 115.179 488.467 114.049 489.052 113.037C489.638 112.026 490.445 111.16 491.412 110.504C492.38 109.849 493.483 109.42 494.639 109.251C495.795 109.082 496.975 109.176 498.089 109.527V109.527C499.825 110.072 501.314 111.21 502.295 112.743C503.276 114.276 503.686 116.105 503.454 117.91L498.953 153.076L494.776 183.99Z" fill="#2F2E41"/>
<path d="M520.983 199.198L520.871 198.849C520.794 198.611 513.335 174.681 525.816 146.126L532.075 114.993L537.423 95.4452C537.523 95.0959 537.704 94.7747 537.95 94.5073C538.196 94.2398 538.501 94.0334 538.84 93.9046C539.24 93.7663 539.671 93.7487 540.08 93.8538C540.489 93.959 540.859 94.1823 541.142 94.4959V94.4959C544.87 93.4014 548.877 93.8022 552.315 95.6133L559.826 99.5706C561.496 100.451 562.827 101.86 563.611 103.578C564.394 105.295 564.585 107.224 564.155 109.063L553.888 152.88L558.879 193.807L520.983 199.198Z" fill="#2F2E41"/>
<path d="M531.914 182.327C533.184 182.465 534.468 182.323 535.677 181.911C536.886 181.498 537.99 180.826 538.911 179.941C539.832 179.056 540.548 177.979 541.008 176.787C541.468 175.596 541.661 174.318 541.574 173.043L564.822 155.819L556.695 151.966L531.627 164.881C529.496 165.169 527.545 166.23 526.143 167.861C524.742 169.492 523.987 171.581 524.022 173.732C524.058 175.882 524.881 177.945 526.335 179.529C527.789 181.113 529.775 182.109 531.914 182.327V182.327Z" fill="#FFB8B8"/>
<path d="M546.489 174.617L538.637 159.958L558.002 147.212L548.552 113.312C548.173 111.955 548.079 110.535 548.274 109.139C548.469 107.744 548.95 106.403 549.686 105.202C550.422 104.001 551.398 102.964 552.553 102.157C553.708 101.35 555.017 100.79 556.398 100.511V100.511C558.838 100.024 561.372 100.44 563.529 101.681C565.687 102.922 567.32 104.904 568.127 107.258L580.878 144.742C581.141 145.515 581.155 146.35 580.92 147.131C580.684 147.912 580.21 148.6 579.564 149.098L546.489 174.617Z" fill="#2F2E41"/>
<path d="M529.664 71.5806C527.106 71.9135 525.176 69.2957 524.281 66.8758C523.386 64.456 522.704 61.6388 520.48 60.3316C517.441 58.5458 513.553 60.6937 510.078 60.1045C506.154 59.4391 503.603 55.2796 503.403 51.3039C503.203 47.3281 504.785 43.5043 506.337 39.8387L506.879 44.3942C506.806 42.8502 507.131 41.3134 507.822 39.9309C508.513 38.5484 509.548 37.3663 510.826 36.4978L510.128 43.1823C510.276 42.2601 510.605 41.3763 511.096 40.5816C511.587 39.787 512.23 39.0972 512.989 38.5517C513.747 38.0063 514.605 37.6159 515.515 37.4032C516.424 37.1904 517.367 37.1593 518.288 37.3118L518.178 41.2946C522.711 40.7556 527.283 40.2158 531.829 40.6265C536.375 41.0371 540.952 42.4757 544.398 45.4699C549.552 49.9488 551.434 57.3239 550.802 64.1232C550.17 70.9225 547.364 77.3099 544.439 83.4802C543.703 85.0327 542.685 86.7845 540.979 86.9823C539.445 87.16 538.042 85.8781 537.566 84.4098C537.199 82.9033 537.213 81.329 537.607 79.8294C538.038 77.5376 538.582 75.195 538.177 72.8986C537.771 70.6021 536.119 68.3327 533.805 68.0512C531.49 67.7698 529.122 70.4159 530.234 72.4652L529.664 71.5806Z" fill="#2F2E41"/>
<path d="M279.178 350.707L270.871 347.208L265.172 305.559H189.285L183.108 347.038L175.676 350.755C175.32 350.933 175.035 351.225 174.867 351.585C174.698 351.946 174.656 352.352 174.748 352.739C174.839 353.126 175.058 353.471 175.37 353.718C175.682 353.964 176.068 354.099 176.465 354.099H278.493C278.901 354.099 279.295 353.958 279.611 353.7C279.926 353.442 280.142 353.082 280.223 352.683C280.304 352.283 280.244 351.868 280.053 351.508C279.863 351.148 279.553 350.865 279.178 350.707V350.707Z" fill="#DEDADA"/>
<path d="M414.035 311.1H41.255C39.2991 311.096 37.4249 310.316 36.0434 308.931C34.662 307.546 33.8861 305.67 33.8861 303.714V251.14H421.404V303.714C421.404 305.67 420.628 307.546 419.246 308.931C417.865 310.316 415.991 311.096 414.035 311.1V311.1Z" fill="#CCCCCC"/>
<path d="M421.793 275.988H33.5458V51.0336C33.5485 48.6728 34.4875 46.4095 36.1566 44.7402C37.8257 43.0709 40.0887 42.132 42.4492 42.1293H412.89C415.25 42.132 417.513 43.071 419.183 44.7402C420.852 46.4095 421.791 48.6728 421.793 51.0336V275.988Z" fill="#3F3D56"/>
<path d="M398.605 259.66H56.7343C54.9145 259.658 53.1699 258.935 51.8831 257.648C50.5963 256.361 49.8725 254.616 49.8705 252.796V65.321C49.8725 63.501 50.5963 61.7561 51.8831 60.4691C53.1698 59.1821 54.9145 58.4581 56.7343 58.4561H398.605C400.425 58.4581 402.169 59.1821 403.456 60.4691C404.743 61.7561 405.467 63.501 405.469 65.321V252.796C405.467 254.616 404.743 256.361 403.456 257.648C402.169 258.935 400.425 259.658 398.605 259.66Z" fill="white"/>
<path d="M395.387 354.533H64.3461C64.1157 354.533 63.8947 354.442 63.7317 354.279C63.5688 354.116 63.4772 353.895 63.4772 353.664C63.4772 353.434 63.5688 353.213 63.7317 353.05C63.8947 352.887 64.1157 352.795 64.3461 352.795H395.387C395.617 352.795 395.838 352.887 396.001 353.05C396.164 353.213 396.256 353.434 396.256 353.664C396.256 353.895 396.164 354.116 396.001 354.279C395.838 354.442 395.617 354.533 395.387 354.533Z" fill="#CCCCCC"/>
<path d="M366.487 236.367H88.8516C88.6212 236.367 88.4002 236.275 88.2372 236.112C88.0743 235.949 87.9828 235.728 87.9828 235.498V102.408C87.9828 102.178 88.0743 101.957 88.2372 101.794C88.4002 101.631 88.6212 101.539 88.8516 101.539C89.0821 101.539 89.3031 101.631 89.466 101.794C89.629 101.957 89.7205 102.178 89.7205 102.408V234.629H366.487C366.718 234.629 366.939 234.72 367.102 234.883C367.265 235.046 367.356 235.267 367.356 235.498C367.356 235.728 367.265 235.949 367.102 236.112C366.939 236.275 366.718 236.367 366.487 236.367Z" fill="#3F3D56"/>
<path d="M148.17 226.808H122.918C122.234 226.807 121.579 226.535 121.095 226.052C120.612 225.568 120.34 224.912 120.339 224.228V189.413C120.34 188.73 120.612 188.074 121.095 187.59C121.579 187.107 122.234 186.835 122.918 186.834H148.17C148.854 186.835 149.51 187.107 149.993 187.59C150.477 188.074 150.749 188.73 150.75 189.413V224.228C150.749 224.912 150.477 225.568 149.993 226.052C149.51 226.535 148.854 226.807 148.17 226.808V226.808Z" fill="#F41616"/>
<path d="M194.221 226.808H168.969C168.285 226.807 167.629 226.535 167.146 226.052C166.662 225.568 166.39 224.912 166.389 224.228V156.392C166.39 155.708 166.662 155.052 167.146 154.569C167.629 154.085 168.285 153.813 168.969 153.812H194.221C194.904 153.813 195.56 154.085 196.043 154.569C196.527 155.052 196.799 155.708 196.8 156.392V224.228C196.799 224.912 196.527 225.568 196.043 226.052C195.56 226.535 194.904 226.807 194.221 226.808V226.808Z" fill="#35753F"/>
<path d="M240.271 226.808H215.019C214.335 226.807 213.679 226.535 213.196 226.052C212.712 225.568 212.44 224.912 212.44 224.228V189.413C212.44 188.73 212.712 188.074 213.196 187.59C213.679 187.107 214.335 186.835 215.019 186.834H240.271C240.955 186.835 241.61 187.107 242.094 187.59C242.577 188.074 242.849 188.73 242.85 189.413V224.228C242.849 224.912 242.577 225.568 242.094 226.052C241.61 226.535 240.955 226.807 240.271 226.808V226.808Z" fill="#F41616" fill-opacity="0.9"/>
<path d="M286.321 226.808H261.069C260.401 226.822 259.754 226.571 259.271 226.11C258.787 225.648 258.506 225.014 258.49 224.345V143.24C258.506 142.572 258.787 141.937 259.271 141.476C259.754 141.014 260.401 140.763 261.069 140.777H286.321C286.989 140.763 287.636 141.014 288.12 141.476C288.603 141.937 288.884 142.572 288.9 143.24V224.345C288.884 225.014 288.603 225.648 288.12 226.11C287.636 226.571 286.989 226.822 286.321 226.808V226.808Z" fill="#35753F" fill-opacity="0.95"/>
<path d="M332.371 226.808H307.119C306.436 226.807 305.78 226.535 305.297 226.052C304.813 225.568 304.541 224.912 304.54 224.228V119.894C304.541 119.21 304.813 118.554 305.297 118.071C305.78 117.587 306.436 117.315 307.119 117.314H332.371C333.055 117.315 333.711 117.587 334.194 118.071C334.678 118.554 334.95 119.21 334.951 119.894V224.228C334.95 224.912 334.678 225.568 334.194 226.052C333.711 226.535 333.055 226.807 332.371 226.808V226.808Z" fill="#35753F"/>
<path d="M135.544 176.406C138.423 176.406 140.758 174.072 140.758 171.192C140.758 168.313 138.423 165.978 135.544 165.978C132.665 165.978 130.331 168.313 130.331 171.192C130.331 174.072 132.665 176.406 135.544 176.406Z" fill="#3F3D56"/>
<path d="M181.595 142.515C184.474 142.515 186.808 140.181 186.808 137.301C186.808 134.422 184.474 132.087 181.595 132.087C178.715 132.087 176.381 134.422 176.381 137.301C176.381 140.181 178.715 142.515 181.595 142.515Z" fill="#3F3D56"/>
<path d="M227.645 176.406C230.524 176.406 232.858 174.072 232.858 171.192C232.858 168.313 230.524 165.978 227.645 165.978C224.766 165.978 222.432 168.313 222.432 171.192C222.432 174.072 224.766 176.406 227.645 176.406Z" fill="#3F3D56"/>
<path d="M273.695 126.004C276.574 126.004 278.908 123.67 278.908 120.79C278.908 117.911 276.574 115.576 273.695 115.576C270.816 115.576 268.482 117.911 268.482 120.79C268.482 123.67 270.816 126.004 273.695 126.004Z" fill="#3F3D56"/>
<path d="M319.745 106.886C322.625 106.886 324.959 104.552 324.959 101.672C324.959 98.7929 322.625 96.4585 319.745 96.4585C316.866 96.4585 314.532 98.7929 314.532 101.672C314.532 104.552 316.866 106.886 319.745 106.886Z" fill="#3F3D56"/>
<path d="M227.754 172.36L181.595 137.781L136.066 171.887L135.023 170.497L181.595 135.609L227.535 170.024L273.187 120.059L273.37 119.984L319.421 101.427L320.07 103.039L274.203 121.522L227.754 172.36Z" fill="#3F3D56"/>
</svg>
