<svg width="80" height="80" viewBox="0 0 80 80" fill="none" xmlns="http://www.w3.org/2000/svg">
<path d="M55.4133 46.4L64.47 55.4533L39.96 79.9633L15.4533 55.4567L24.51 46.4L39.9633 61.9333L55.4133 46.4V46.4ZM70.87 30.9467L80 40L70.95 49.0533L61.8933 40L70.87 30.9467V30.9467ZM39.9633 30.9467L49.0167 39.92L39.96 48.9767L30.9067 40L39.96 30.95L39.9633 30.9467ZM9.05333 30.9467L18.0333 40L9.06 48.9733L0 40L9.05333 30.9467V30.9467ZM39.9667 0.0333338L64.4733 24.4667L55.4167 33.5167L39.9633 18.0633L24.5133 33.5967L15.4567 24.5433L39.9633 0.0366671L39.9667 0.0333338Z" fill="#E7B400"/>
</svg>
