<svg width="45" height="45" viewBox="0 0 45 45" fill="none" xmlns="http://www.w3.org/2000/svg">
<path d="M42.615 10.035C41.5125 11.6775 40.1175 13.14 38.4975 14.31C38.52 14.6475 38.52 15.0075 38.52 15.3675C38.52 26.28 30.2175 38.8575 15.0525 38.8575C10.395 38.8575 6.05249 37.485 2.38499 35.145C3.03749 35.2125 3.68999 35.2575 4.36499 35.2575C8.23499 35.2575 11.79 33.93 14.6025 31.725C12.882 31.6894 11.2156 31.1174 9.83604 30.0887C8.45647 29.0601 7.43261 27.6263 6.90749 25.9875C7.40249 26.0775 7.91999 26.145 8.45999 26.145C9.20249 26.145 9.94499 26.0325 10.62 25.8525C8.75385 25.4694 7.07688 24.4546 5.87186 22.979C4.66684 21.5035 4.0075 19.6576 4.00499 17.7525V17.6625C5.12999 18.27 6.38999 18.6525 7.73999 18.6975C6.61005 17.9396 5.6843 16.9148 5.04463 15.714C4.40495 14.5131 4.07106 13.1731 4.07249 11.8125C4.07249 10.305 4.47749 8.88751 5.19749 7.67251C9.26999 12.6675 15.345 15.9525 22.2075 16.29C22.0725 15.6825 21.9825 15.0525 21.9825 14.4C21.9885 12.2139 22.8611 10.1193 24.409 8.57561C25.9569 7.0319 28.0539 6.165 30.24 6.16501C32.625 6.16501 34.7625 7.15501 36.27 8.77501C38.1375 8.39251 39.915 7.71751 41.5125 6.77251C40.8825 8.68501 39.5775 10.305 37.8675 11.3175C39.5068 11.1383 41.1084 10.7057 42.615 10.035V10.035Z" fill="white"/>
</svg>
