<svg width="400" height="500" viewBox="0 0 400 500" fill="none" xmlns="http://www.w3.org/2000/svg">
<g clip-path="url(#clip0_1_2)">
<path d="M1 475C1 483.837 8.16344 491 17 491H383C391.837 491 399 483.837 399 475V402C399 393.163 391.837 386 383 386H17C8.16345 386 1 393.163 1 402V475Z" fill="white"/>
<path d="M353.53 468.75C352.729 468.749 351.936 468.878 351.196 469.129C350.455 469.38 349.783 469.748 349.216 470.212C348.649 470.677 348.2 471.228 347.893 471.835C347.586 472.442 347.429 473.093 347.429 473.75C347.429 474.407 347.586 475.058 347.893 475.665C348.2 476.272 348.649 476.823 349.216 477.288C349.783 477.752 350.455 478.12 351.196 478.371C351.936 478.622 352.729 478.751 353.53 478.75H377.906C379.522 478.75 381.072 478.223 382.215 477.286C383.358 476.348 384 475.076 384 473.75C384 472.424 383.358 471.152 382.215 470.214C381.072 469.277 379.522 468.75 377.906 468.75H353.53Z" fill="#15803D"/>
<path d="M56.5714 471.25C75.1913 471.25 90.2857 456.14 90.2857 437.5C90.2857 418.86 75.1913 403.75 56.5714 403.75C37.9515 403.75 22.8571 418.86 22.8571 437.5C22.8571 456.14 37.9515 471.25 56.5714 471.25Z" fill="#6C63FF"/>
<path d="M115.135 452.5L114.286 451.199L142.216 432.197L161.368 441.579L188.917 423.618L243.719 447.474L287.359 425.597L329.736 443.129L382.985 395L384 396.17L330.041 444.942L287.419 427.308L243.763 449.192L189.06 425.379L161.475 443.365L142.34 433.993L115.135 452.5Z" fill="#3F3D56"/>
<path d="M119.244 470C118.594 469.999 117.949 470.112 117.347 470.331C116.746 470.551 116.199 470.873 115.738 471.279C115.278 471.686 114.913 472.168 114.663 472.699C114.414 473.231 114.286 473.8 114.286 474.375C114.286 474.95 114.414 475.519 114.663 476.051C114.913 476.582 115.278 477.064 115.738 477.471C116.199 477.877 116.746 478.199 117.347 478.419C117.949 478.638 118.594 478.751 119.244 478.75H171.054C172.366 478.749 173.624 478.287 174.552 477.467C175.479 476.646 176 475.534 176 474.375C176 473.216 175.479 472.104 174.552 471.283C173.624 470.463 172.366 470.001 171.054 470H119.244Z" fill="#B91C1C"/>
<path d="M69.0953 423.75H74.2191L63.5576 434.538C61.6951 436.416 59.1851 437.468 56.57 437.468C53.9549 437.468 51.4448 436.416 49.5824 434.538L38.9223 423.75H44.0461L52.1449 431.946C53.3245 433.135 54.9144 433.801 56.5707 433.801C58.227 433.801 59.8168 433.135 60.9964 431.946L69.0953 423.75ZM43.9809 453.75H38.8571L49.5838 442.895C51.4463 441.018 53.9563 439.966 56.5714 439.966C59.1865 439.966 61.6966 441.018 63.5591 442.895L74.2857 453.75H69.1619L60.9965 445.488C59.8169 444.299 58.2271 443.632 56.5707 443.632C54.9144 443.632 53.3246 444.299 52.145 445.488L43.9809 453.75Z" fill="white"/>
<path d="M1.14285 110.75C1.14285 119.587 8.3063 126.75 17.1429 126.75H382.857C391.694 126.75 398.857 119.587 398.857 110.75V36.5C398.857 27.6634 391.694 20.5 382.857 20.5H17.1429C8.30631 20.5 1.14285 27.6634 1.14285 36.5V110.75Z" fill="white"/>
<path d="M358.095 103C356.479 103 354.928 103.527 353.785 104.464C352.642 105.402 352 106.674 352 108C352 109.326 352.642 110.598 353.785 111.536C354.928 112.473 356.479 113 358.095 113H382.476C384.093 113 385.643 112.473 386.786 111.536C387.929 110.598 388.571 109.326 388.571 108C388.571 106.674 387.929 105.402 386.786 104.464C385.643 103.527 384.093 103 382.476 103H358.095Z" fill="#15803D"/>
<path d="M53.7143 109.25C72.0186 109.25 86.8571 93.8598 86.8571 74.875C86.8571 55.8902 72.0186 40.5 53.7143 40.5C35.41 40.5 20.5714 55.8902 20.5714 74.875C20.5714 93.8598 35.41 109.25 53.7143 109.25Z" fill="#F2A900"/>
<path d="M119.706 81.75L118.857 80.506L146.787 62.3306L165.94 71.3047L193.489 54.1244L193.861 54.2788L248.29 76.9429L291.931 56.0171L334.308 72.7871L387.556 26.75L388.571 27.8692L334.613 74.5206L291.991 57.6539L248.335 78.5869L193.632 55.8091L166.046 73.0127L146.911 64.0465L119.706 81.75Z" fill="#3F3D56"/>
<path d="M123.804 96.75C122.491 96.7517 121.233 97.2793 120.306 98.2168C119.378 99.1542 118.857 100.425 118.857 101.75C118.857 103.075 119.378 104.346 120.306 105.283C121.233 106.221 122.491 106.748 123.804 106.75H175.619C176.932 106.75 178.192 106.223 179.121 105.286C180.05 104.348 180.571 103.076 180.571 101.75C180.571 100.424 180.05 99.1521 179.121 98.2145C178.192 97.2768 176.932 96.75 175.619 96.75H123.804Z" fill="#B91C1C"/>
<path d="M68.488 69.0799C69.1528 64.8771 65.7641 62.6178 61.1306 61.1106L62.6337 55.4173L58.9627 54.5536L57.4994 60.0969C56.5356 59.8698 55.5448 59.6556 54.5601 59.4434L56.0339 53.8637L52.3662 53L50.8621 58.6913C50.0635 58.5196 49.2795 58.3498 48.5186 58.1711L48.5228 58.1534L43.4617 56.96L42.4854 60.6614C42.4854 60.6614 45.2083 61.2507 45.1508 61.2872C45.6587 61.3446 46.1223 61.588 46.4421 61.9649C46.7619 62.3419 46.9123 62.8223 46.8609 63.3028L45.1487 69.7886C45.2785 69.8192 45.4059 69.8577 45.5302 69.9041L45.1435 69.8133L42.7426 78.8991C42.6898 79.0576 42.6043 79.2048 42.4911 79.3321C42.3779 79.4594 42.2392 79.5644 42.0829 79.6409C41.9266 79.7174 41.7559 79.7639 41.5804 79.7779C41.405 79.7919 41.2284 79.773 41.0608 79.7223C41.0973 79.7726 38.3933 79.0935 38.3933 79.0935L36.5714 83.0614L41.3482 84.1857C42.2367 84.396 43.1074 84.616 43.9634 84.8233L42.4447 90.5827L46.1104 91.4464L47.6155 85.7492C48.6158 86.0058 49.5879 86.2427 50.5391 86.4658L49.0402 92.1363L52.7101 93L54.2288 87.2524C60.4867 88.3707 65.1934 87.9197 67.1721 82.5758C68.7682 78.2723 67.0937 75.7899 63.8012 74.1701C66.1989 73.646 68.0052 72.1566 68.487 69.0799L68.488 69.0799ZM60.102 80.1832C58.9669 84.4868 51.2948 82.1613 48.806 81.5769L50.8213 73.9481C53.3089 74.5344 61.2852 75.6952 60.1031 80.1832H60.102ZM61.2361 69.0178C60.2013 72.9324 53.8149 70.9435 51.7421 70.4559L53.5692 63.5367C55.6419 64.0243 62.3148 64.9344 61.2361 69.0178V69.0178Z" fill="white"/>
<path d="M1 305C1 313.837 8.16344 321 17 321H383C391.837 321 399 313.837 399 305V232C399 223.163 391.837 216 383 216H17C8.16345 216 1 223.163 1 232V305Z" fill="white"/>
<path d="M352.81 298.25C351.193 298.25 349.643 298.777 348.5 299.714C347.356 300.652 346.714 301.924 346.714 303.25C346.714 304.576 347.356 305.848 348.5 306.786C349.643 307.723 351.193 308.25 352.81 308.25H377.19C378.807 308.25 380.357 307.723 381.5 306.786C382.644 305.848 383.286 304.576 383.286 303.25C383.286 301.924 382.644 300.652 381.5 299.714C380.357 298.777 378.807 298.25 377.19 298.25H352.81V298.25Z" fill="#15803D"/>
<path d="M383.286 288.25H113.571V289.5H383.286V288.25Z" fill="#E6E6E6"/>
<path d="M57.5714 299.5C76.5069 299.5 91.8572 284.949 91.8572 267C91.8572 249.051 76.5069 234.5 57.5714 234.5C38.6359 234.5 23.2857 249.051 23.2857 267C23.2857 284.949 38.6359 299.5 57.5714 299.5Z" fill="#ECF0F1"/>
<path d="M114.421 280.75L113.571 279.506L141.501 261.331L160.655 270.305L188.203 253.124L188.576 253.279L243.004 275.943L286.645 255.017L329.022 271.786L382.27 225.75L383.286 226.87L329.327 273.521L286.705 256.654L243.049 277.587L188.347 254.809L160.761 272.013L141.626 263.047L114.421 280.75Z" fill="#3F3D56"/>
<path d="M118.707 298.25C117.345 298.25 116.039 298.777 115.076 299.714C114.113 300.652 113.571 301.924 113.571 303.25C113.571 304.576 114.113 305.848 115.076 306.786C116.039 307.723 117.345 308.25 118.707 308.25H172.436C173.798 308.25 175.104 307.723 176.067 306.786C177.03 305.848 177.571 304.576 177.571 303.25C177.571 301.924 177.03 300.652 176.067 299.714C175.104 298.777 173.798 298.25 172.436 298.25H118.707Z" fill="#B91C1C"/>
<path d="M57.567 289.5L72.4286 269.5L57.567 277.885L42.7143 269.5L57.5661 289.5H57.567Z" fill="#404040"/>
<path d="M56.9991 277H57L71.2857 269.12L57 247H56.9991L42.7143 269.12L56.9991 277Z" fill="#404040"/>
</g>
<defs>
<clipPath id="clip0_1_2">
<rect width="400" height="500" fill="white"/>
</clipPath>
</defs>
</svg>
